<?xml version="1.0" encoding="utf-8"?>
<!-- Generator: Adobe Illustrator 29.5.1, SVG Export Plug-In . SVG Version: 9.03 Build 0)  -->
<svg version="1.0" id="Layer_1" xmlns="http://www.w3.org/2000/svg" xmlns:xlink="http://www.w3.org/1999/xlink" x="0px" y="0px"
	 viewBox="0 0 384 384" enable-background="new 0 0 384 384" xml:space="preserve">
<g>
	<path fill="#FFFFFF" d="M201.97,381l-25.12-24.74c-1.85-2.77-1.54-4.46,0.34-7.06c2.41-3.34,19.19-20.12,22.53-22.53
		c3.6-2.6,8.42-1.65,8.89,3.05c0.51,5.1-11.7,13.42-14.77,17.67c31.58,0.83,63.81-10.61,89.31-28.9
		c27.46-19.69,47.37-47.38,57.9-79.51c1.28-3.91,3.43-16.62,6.16-18.21c2.21-1.29,6.17-1,7.31,1.39c2.23,4.69-5.2,25.48-7.4,31.02
		c-24.62,62.07-85.94,105.22-153.29,104.93c3.84,6.68,23.86,16.95,9.6,22.9H201.97z"/>
	<path fill="#FFFFFF" d="M381.5,182.27l-24.41,24.72c-3.24,2.04-5.25,1.44-8.11-0.69c-3.76-2.81-18.27-17.3-21.06-21.06
		c-3.81-5.14-1.5-11.45,5.04-9.47c3.03,0.92,11.47,12.7,15.29,14.62c-1.09-68.42-44.88-126.06-109.18-147.54
		c-4.57-1.53-17.54-2.52-17.14-8.66c0.55-8.33,12.98-3.37,17.55-2.1c68.98,19.29,119.38,86.6,119.13,158.3
		c6.7-3.71,16.38-23.42,22.9-10.34V182.27z"/>
	<path fill="#FFFFFF" d="M157.5,291.01c-0.33-0.38-8.78-3.63-9.28-3.72c-5.34-0.93-15.15,12.06-22.38,9.89
		c-3.08-0.93-14.76-10.63-17.71-13.32c-4.54-4.16-19.53-20.35-21.08-25.47c-2.18-7.21,10.82-17.05,9.89-22.38
		c-0.09-0.49-3.34-8.95-3.72-9.28c-1.67-1.46-17.49-2.23-20.93-5.29c-2.17-1.93-3.67-13.22-4.03-16.65
		c-1.01-9.61-0.85-31.52,2.56-40.27c2.52-6.45,19.2-4.54,22.46-8.56c0.93-1.15,3.91-8.71,3.66-10.09
		c-0.78-4.26-10.07-12.9-10.28-17.92c-0.15-3.48,6.49-11.7,8.94-14.74c5.66-7.03,21.34-22.66,29.27-26.13
		c8.2-3.58,17.24,9.86,22.74,9.48c0.96-0.07,9.06-3.72,9.62-4.47c3.25-4.37,1.49-19.31,7.78-21.77c8.74-3.42,30.66-3.57,40.27-2.56
		c3.43,0.36,14.72,1.86,16.65,4.03c3.37,3.79,3.09,18.36,6.34,21c1.15,0.93,8.71,3.91,10.09,3.66c5.37-0.98,13.74-11.95,20.53-9.9
		c3.2,0.97,15.07,10.89,18.09,13.68c5.23,4.83,17.51,18.02,20.18,24.14c3.58,8.19-9.87,17.07-9.48,22.74
		c0.07,0.96,3.72,9.06,4.47,9.62c4.37,3.25,19.31,1.49,21.77,7.78c3.42,8.74,3.57,30.66,2.56,40.27
		c-0.36,3.43-1.86,14.72-4.03,16.65c-3.79,3.37-18.36,3.09-21,6.34c-0.93,1.15-3.91,8.71-3.66,10.09
		c1.02,5.57,12.01,13.48,9.9,20.53c-0.96,3.18-10.9,15.08-13.68,18.09c-4.11,4.45-20.09,19.19-25.11,20.7
		c-7.23,2.17-17.05-10.82-22.38-9.89c-0.92,0.16-8.53,3.71-9.01,4.35c-2.85,3.84-2.07,18.65-6.77,21.3
		c-1.71,0.96-7.37,1.87-9.62,2.2c-12.06,1.74-25.41,1.74-37.48,0c-4.59-0.66-10.24-0.85-12.1-5.63
		C160.39,306.56,158.13,291.72,157.5,291.01z M213.66,79.7c-13.98-2.39-28.6-2.39-42.58,0c-2.64,6.32-1.58,18.63-7.98,21.94
		c-1.66,0.86-14.66,6.28-15.76,6.43c-4.37,0.59-13.32-8.34-17.74-9.72c-1.23-0.38-1.71-0.49-2.94,0.06
		c-3.93,1.76-15.22,12.61-18.53,16.23c-1.44,1.57-9.16,10.87-9.47,12.01c-1.09,3.93,9.75,14.52,10.02,19.15
		c0.06,0.98-6.47,17.09-7.29,18.25c-3.29,4.64-16.22,3.95-21.33,6.89c-2.13,13.94-2.2,28.33,0.12,42.25
		c7.05,2.83,18.57,1.08,22.21,8.45c0.89,1.81,6.04,14.07,6.2,15.25c0.62,4.62-8.31,13.21-9.72,17.74c-0.38,1.23-0.49,1.71,0.06,2.94
		c1.7,3.81,12.01,14.56,15.49,17.79c1.7,1.58,11.46,9.85,12.75,10.21c3.99,1.1,15.04-10.26,19.79-10.15
		c0.95,0.02,16.61,6.71,17.6,7.42c4.64,3.29,3.95,16.21,6.89,21.33c13.91,2.05,28.33,2.32,42.22-0.15
		c2.64-6.32,1.58-18.63,7.98-21.94c1.66-0.86,14.66-6.28,15.76-6.43c4.62-0.62,13.21,8.31,17.74,9.72c1.23,0.38,1.71,0.49,2.94-0.06
		c3.93-1.76,15.22-12.61,18.53-16.23c1.44-1.57,9.16-10.87,9.47-12.01c1.09-3.93-9.75-14.52-10.02-19.15
		c-0.06-0.98,6.46-17.08,7.29-18.25c3.12-4.42,16.35-4.05,21.33-6.89c2.13-13.94,2.2-28.33-0.12-42.25
		c-6.33-2.53-18.69-1.59-21.98-7.95c-0.86-1.66-6.28-14.66-6.43-15.76c-0.62-4.62,8.31-13.21,9.72-17.74
		c0.38-1.23,0.49-1.71-0.06-2.94c-1.76-3.93-12.61-15.22-16.23-18.53c-1.57-1.44-10.87-9.16-12.01-9.47
		c-3.93-1.09-14.52,9.75-19.15,10.02c-0.98,0.06-17.08-6.46-18.25-7.29C216.02,97.95,215.75,84.69,213.66,79.7z"/>
	<path fill="#FFFFFF" d="M36.49,194.09c-0.33,62.75,40.89,120.59,98.81,143.14c9.24,3.6,18.8,5.76,28.25,8.69
		c4.53,4.26,1.48,9.65-4.69,9.14c-22.87-1.89-59.44-22.76-76.58-37.96c-35.26-31.28-55.75-75.68-56.88-123.02
		c-3.69,1.84-11.6,12.99-14.55,13.88c-5.77,1.76-9.32-3.84-5.79-8.75c2.53-3.51,18.24-19.13,21.81-21.78
		c2.13-1.58,3.26-2.32,6.13-1.69c4.1,0.91,21.09,20.85,25.32,24.93c0.49,1.81,0.8,4-0.35,5.64C52.2,214.47,41.86,195.4,36.49,194.09
		z"/>
	<path fill="#FFFFFF" d="M186.94,54.93c-0.59,0.55-3.53,2.93-3.95,3.06c-4.43,1.38-7.74-1.57-6.86-6.11
		c0.5-2.59,10.58-10.64,12.92-13.69c0.57-0.74,1.43-0.94,1.1-2.22c-72.32,0-136.3,53.85-151.12,124.08
		c-2.93,4.02-9.35,2.39-9.69-2.65c-0.28-4.1,4.89-18.74,6.59-23.36C59.28,70.7,121.33,25.63,189.41,25.64
		c0.33-1.28-0.53-1.48-1.1-2.22c-2.4-3.12-10.93-9.56-11.86-12.51c-1.8-5.69,2.16-9.24,7.47-6.73l24,24.01
		c3.03,5.24-2.59,7.59-5.24,10.35C197.57,43.88,192.42,49.85,186.94,54.93z"/>
	<path fill="#FFFFFF" d="M184.09,114.51c62.18-5.99,106.72,59.52,76.37,114.79c-27.76,50.56-99.65,54.05-132.23,6.39
		C95.37,187.61,126.12,120.09,184.09,114.51z M185.57,124.86c-53.21,5-79.27,69.03-44.9,110.21
		c32.25,38.62,94.98,28.93,113.89-17.58C273.77,170.25,236.08,120.12,185.57,124.86z"/>
	<path fill="#FFFFFF" d="M179.07,157.88h8.13v-15.15c0-4.3,10.34-4.3,10.34,0v15.15h8.13v-13.67c0-5.05,9.5-7.59,10.38-0.78
		c0.3,2.28-0.55,13.94-0.04,14.45c0.41,0.41,6.02-1.01,8.53,1.44c2.64,2.58,1.49,8.57,1.81,8.9c0.51,0.51,12.16-0.34,14.45-0.04
		c6.81,0.89,4.27,10.38-0.78,10.38h-13.67v8.13h15.15c4.3,0,4.3,10.34,0,10.34h-15.15v8.13h13.67c1.1,0,4.26,2.19,4.64,3.48
		c3.09,10.29-12.71,6.05-18.32,6.86c0.91,8.16-2.17,11.26-10.34,10.34c-0.81,5.65,3.43,21.39-6.86,18.32
		c-1.29-0.39-3.48-3.55-3.48-4.64v-13.67h-8.13V241c0,4.3-10.34,4.3-10.34,0v-15.15h-8.13v13.67c0,1.09-2.19,4.26-3.48,4.64
		c-10.29,3.08-6.05-12.66-6.86-18.32c-8.16,0.91-11.26-2.17-10.34-10.34c-5.61-0.81-21.4,3.43-18.32-6.86
		c0.39-1.29,3.55-3.48,4.64-3.48h13.67v-8.13h-15.15c-4.3,0-4.3-10.34,0-10.34h15.15v-8.13h-13.67c-5.04,0-7.59-9.49-0.78-10.38
		c2.28-0.3,13.94,0.55,14.45,0.04c0.39-0.39-0.98-5.78,1.46-8.52c2.72-3.05,8.41-1.35,8.89-1.83c0.51-0.51-0.34-12.17-0.04-14.45
		c0.88-6.81,10.38-4.27,10.38,0.78V157.88z M216.01,168.23h-47.28v47.28h47.28V168.23z"/>
	<path fill="#FFFFFF" d="M178.86,174.3c3.69-0.82,21.48-0.67,25.72-0.17c3.42,0.4,5.15,2.15,5.54,5.54
		c0.43,3.75,0.53,23.47-0.35,26.28c-0.72,2.32-2.89,3.4-5.19,3.67c-3.74,0.43-23.47,0.53-26.28-0.35c-2.32-0.72-3.4-2.89-3.67-5.19
		c-0.61-5.27-0.61-19.14,0-24.41C174.92,177.12,176.21,174.89,178.86,174.3z M199.76,184.48h-14.78v14.78h14.78V184.48z"/>
</g>
</svg>
