<?xml version="1.0" encoding="utf-8"?>
<!-- Generator: Adobe Illustrator 29.5.1, SVG Export Plug-In . SVG Version: 9.03 Build 0)  -->
<svg version="1.0" id="Layer_1" xmlns="http://www.w3.org/2000/svg" xmlns:xlink="http://www.w3.org/1999/xlink" x="0px" y="0px"
	 viewBox="0 0 384 384" enable-background="new 0 0 384 384" xml:space="preserve">
<g>
	<path fill="#FFFFFF" d="M150,96.56h6V34.81c0-2.47,4.19-3.96,6.34-4.15c5.33-0.48,19.74-0.7,24.74,0.08
		c1.68,0.26,4.92,2.51,4.92,4.07v61.75h73.5c-26.42-30.07-12.07-78.27,26.84-88.11C344.4-4.72,381.1,56.38,346.5,96.56h11.62
		c8.73,0,20.8,13.67,19.91,22.8l-0.04,183.42c0.08,8.58-11.54,21.34-19.87,21.34H230.25l8.22,23.61c4.48,1.57,25.53-2.46,25.53,4.46
		v13.85h61.88c3.88,0,7.82,11.11-2.21,12.01l-264.05-0.02c-8.8-1.02-5.52-11.99-1.48-11.99H120v-13.85c0-6.92,21.05-2.89,25.53-4.46
		l8.22-23.61H25.88c-8.73,0-20.8-13.67-19.91-22.8L6.01,117.9c-0.08-8.58,11.54-21.34,19.87-21.34H72V52.77
		c0-2.47,4.19-3.96,6.34-4.15c5.33-0.48,19.74-0.7,24.74,0.08c1.68,0.26,4.92,2.51,4.92,4.07v43.79h6V10.85
		c0-2.47,4.19-3.96,6.34-4.15c5.33-0.48,19.74-0.7,24.74,0.08c1.68,0.26,4.92,2.51,4.92,4.07V96.56z M138,18.71h-12v137.73h12V18.71
		z M300,19.46c-31.14,3.64-46.32,40.57-28.12,65.88c2.03,0.02,24.38-24.38,28.12-27.33V19.46z M347.25,54.64
		c-1.68-17.9-17.31-33.5-35.25-35.18v35.18H347.25z M180,42.67h-12v113.78h12V42.67z M96,60.63H84v95.81h12V60.63z M347.25,66.62
		h-38.62l-27.36,27.35c-0.45,1.16,2.09,2.01,2.76,2.43C309.39,112.27,343.89,96.13,347.25,66.62z M72,108.54H27.38
		c-3.01,0-9.38,6.39-9.38,9.36v158.32h348V117.89c0-3.75-6.4-8.78-10.19-9.29c-4.69-0.64-20.04-0.71-24.64-0.02
		c-3.12,0.47-7.82,3.29-11.52,4.22c-9.33,2.36-18.59,2.3-27.91-0.15c-2.14-0.56-9.57-4.12-10.12-4.12H192v47.91h6v-37.8
		c0-1.98,3.65-3.91,5.61-4.13c4.92-0.57,20.76-0.68,25.47,0.06c3.58,0.56,4.65,2.98,4.95,6.28c0.89,9.72,1.09,32.47-0.02,41.97
		c-0.3,2.55-1.31,4.26-3.73,5.26l-193.95,0.37c-3.16,0.14-5.79-1.76-6.3-4.95c0.87-13.73-1.31-29.14-0.08-42.66
		c0.3-3.3,1.37-5.72,4.95-6.28c4.71-0.74,20.55-0.63,25.47-0.06c1.95,0.23,5.61,2.15,5.61,4.13v37.8h6V108.54z M114,108.54h-6v47.91
		h6V108.54z M156,108.54h-6v47.91h6V108.54z M54,126.5H42v29.94h12V126.5z M222,126.5h-12v29.94h12V126.5z M366,288.19H18v14.6
		c0,2.41,5.19,8.02,7.84,8.64c110.41,1.32,221.31,0.91,331.78,0.21c2.86-0.51,8.38-6.27,8.38-8.85V288.19z M225.75,348.07
		c-1.82-3.12-6.88-23.23-8.73-23.85l-50.55,0.24l-8.22,23.61H225.75z M252,360.05H132v5.99h120V360.05z"/>
	<path fill="#FFFFFF" d="M63.83,230.6c-9.14,17.04-34.78,10.23-33.86-9.43c0.81-17.35,23.89-23.12,33.38-8.56
		c1.23,1.89,1.23,4.56,3.12,5.87l61.71,25.48c4.45-8.71,15.17-12.28,24.08-7.81c2.6,1.3,5.64,6.01,7.68,5.51l62.38-47.11
		c5.73-19.71,30.36-18.37,36.14,0.73l60.29,34.95c3.36,0.85,5.22-3.93,7.99-5.57c19.08-11.32,38.63,16.59,19.7,30.14
		c-11.25,8.06-25.1,1.37-28.44-11.16l-60.75-35.25c-3.33-0.81-5.41,4.16-8.47,5.84c-5.16,2.82-12.43,2.8-17.56,0
		c-2.03-1.11-5.03-5.41-6.58-5.4l-61.15,45.28c-4.15,6.63-6.62,14.19-15.7,15.77c-11.28,1.97-17.76-4.45-22.25-13.8L63.83,230.6z
		 M238.3,192.52c-6.9,1.5-5.38,13.6,3.41,11.68C248.61,202.7,247.09,190.61,238.3,192.52z M46.3,216.47
		c-6.9,1.5-5.38,13.6,3.41,11.68C56.61,226.65,55.09,214.56,46.3,216.47z M334.3,234.44c-6.9,1.5-5.38,13.6,3.41,11.68
		C344.61,244.62,343.09,232.53,334.3,234.44z M142.3,246.42c-6.9,1.5-5.38,13.6,3.41,11.68C152.61,256.6,151.09,244.5,142.3,246.42z
		"/>
	<path fill="#FFFFFF" d="M280.28,120.67l56.8-0.11c6.64,1.04,6.62,10.86,0,11.89l-52.3,0.2c-5.57,3.34-20.29,22.6-25.07,23.65
		c-5.77,1.27-9.57-4.01-6.86-9.12l24.64-24.81L280.28,120.67z"/>
	<path fill="#FFFFFF" d="M34.29,174.57l68.11-0.18c7.5,0.76,7.73,11.12,0,12.01c-20.61,2.38-45.69-1.83-66.78,0
		C28.76,185.82,27.81,176.73,34.29,174.57z"/>
	<path fill="#FFFFFF" d="M244.29,258.41l44.8-0.12c6.64,1.04,6.62,10.86,0,11.89c-12.93,2.01-30.7-1.37-44.16,0
		C238.59,269.19,238.19,260.19,244.29,258.41z"/>
	<path fill="#FFFFFF" d="M268.29,240.44c2.66-0.59,18.77-0.59,21.43,0c5.89,1.32,5.85,10.76-0.63,11.77
		c-3.17,0.49-17.87,0.54-20.8-0.12C262.54,250.82,262.53,241.72,268.29,240.44z"/>
	<path fill="#FFFFFF" d="M118.29,174.57c4.34-0.96,12.96-1.05,13.7,4.77c0.97,7.59-7.46,7.87-13.06,7
		C112.44,185.33,112.39,175.88,118.29,174.57z"/>
	<path fill="#FFFFFF" d="M34.29,294.34l38.8-0.12c6.64,1.04,6.62,10.86,0,11.89c-5.91,0.92-32.26,0.92-38.16,0
		C28.59,305.12,28.19,296.12,34.29,294.34z"/>
	<path fill="#FFFFFF" d="M88.29,294.34c4.34-0.96,12.96-1.05,13.7,4.77c0.97,7.59-7.46,7.87-13.06,7
		C82.44,305.1,82.39,295.65,88.29,294.34z"/>
</g>
</svg>
