<?xml version="1.0" encoding="utf-8"?>
<!-- Generator: Adobe Illustrator 29.5.1, SVG Export Plug-In . SVG Version: 9.03 Build 0)  -->
<svg version="1.0" id="Layer_1" xmlns="http://www.w3.org/2000/svg" xmlns:xlink="http://www.w3.org/1999/xlink" x="0px" y="0px"
	 viewBox="0 0 384 384" enable-background="new 0 0 384 384" xml:space="preserve">
<g>
	<path fill="#FFFFFF" d="M226.08,264.98l6.71-0.03l22.9-77.78c1.93-15.35-1.43-33.29,0.32-48.34c0.43-3.68,2.67-5.68,6.34-5.63
		c22.94,1.63,48.58-2.05,71.18,0c3.86,0.35,5.87,1.63,6.34,5.63c1.74,14.78-1.49,32.61,0.18,47.73l35.67,119.27
		c-1.88,23.09,2.71,50.77,0.08,73.31c-0.27,2.32-1.08,3.92-3.2,5.03L6.78,383.6c-1.56-1.17-2.06-2.58-2.28-4.46
		c-2.65-22.53,1.96-50.23,0.08-73.31l35.53-118.67c2.26-15.05-1.89-34.51,0.38-49.02c0.56-3.6,3.02-4.65,6.28-4.95
		c22.85-2.05,48.73,1.62,71.91,0.02c3.38,0.24,5.23,2.29,5.61,5.61c1.75,15.03-1.62,32.99,0.32,48.34l22.9,77.78l6.71,0.03v-19.84
		c0-4.23,8.97-4.65,11.98-4.12v-37.8c0-2.47,4.18-3.96,6.33-4.15c11.62-1.05,24.86,0.82,36.67,0.08c1.6-0.19,4.91,2.89,4.91,4.07
		v37.8c3-0.54,11.98-0.11,11.98,4.12V264.98z M112.3,145.21H52.42v11.98h59.88V145.21z M327.88,145.21H268v11.98h59.88V145.21z
		 M112.3,169.16H52.42V189L16.49,307.27v65.5H64.4v-47.91c-6.12,0.48-13.03,0.39-11.82-7.68l24.39-48.99
		c0.3-1.01,2.82-3.22,3.52-3.22h54.27c-6.45-25.56-14.67-50.77-22.46-75.98V169.16z M327.88,169.16H268V189
		c-7.78,25.21-16,50.42-22.46,75.98h54.27c0.7,0,3.22,2.21,3.52,3.22l24.39,48.99c1.21,8.07-5.7,8.16-11.82,7.68v47.91h47.91v-65.5
		L327.88,189V169.16z M202.13,211.08h-23.95v29.94h23.95V211.08z M214.11,253H166.2v11.98h47.91V253z M312.16,312.88l-17.29-34.73
		l-1.79-1.2l-205.15-0.04l-2.5,1.24l-17.29,34.73H312.16z M303.93,324.86H76.37v47.91h77.85v-31.81c0-1.42,3.76-4.58,5.6-4.13
		c19.31,1.35,40.91-1.74,59.93-0.02c2.14,0.19,6.33,1.68,6.33,4.15v31.81h77.85V324.86z M214.11,348.81H166.2v23.95h47.91V348.81z"
		/>
	<path fill="#FFFFFF" d="M106.32,103.29v11.98H94.34V94.68c0-1.22,2.88-3.65,4.28-3.96c5.29-1.17,8.67,2.34,15.85-1.35
		c7.4-3.8,8.49-15.66,17.07-10.93c7.72,4.25,9.91,8.22,20.47,6.55c25.66-4.07,26.36-38.58,2.19-46.43
		c-5.65-1.83-10.3,0.29-13.48-0.71c-2.66-0.83-6.61-6.65-9.45-8.54c-7.99-5.32-19.14-5.02-26.82,0.62
		c-3.08,2.26-5.53,7.36-9.75,7.54c-4.92,0.21-7.84-5.94-11.82-8.43c-15.01-9.41-32.51,0.08-36.12,16.57
		c-0.8,3.69,0.76,7.2-3.05,9.67c-4.14,2.69-7.71,2.13-11.5,7.21c-6.65,8.92-3.87,18.31,4.47,24.72c6.05,4.64,13.49,4.04,18.31,10.88
		c3.79,5.38,3.69,10.84,3.42,17.17H46.43c1.63-12.75-3.59-10.82-11.73-14.84c-19.89-9.81-25.35-36.45-6.92-50.59
		c1.4-1.07,6.2-3.28,6.48-3.62c0.47-0.57,1.99-8.16,2.82-10.28C46,13.15,75.76,6.09,94.07,22.39c12.83-9.99,28.92-12.27,43.16-3.53
		c2.16,1.32,6.88,6.17,7.79,6.44c2.67,0.78,7.63,0.32,11.46,1.27c8.52,2.12,16.68,8.72,21.57,15.85
		c18.4,26.84-7.13,61.04-38.2,53.92c-2.52-0.58-8.5-3.69-9.93-3.54c-0.71,0.07-8.57,6.82-11.46,8.05
		C114.76,102.42,110.33,103.31,106.32,103.29z"/>
	<path fill="#FFFFFF" d="M273.99,103.29c-6.01,0.09-11.92-1.94-16.86-5.22c-1.76-1.17-5.5-5.16-6.75-5.28
		c-1.43-0.14-7.4,2.97-9.93,3.54c-31.07,7.12-56.6-27.08-38.2-53.92c4.89-7.14,13.05-13.73,21.57-15.85
		c3.83-0.95,8.79-0.49,11.46-1.27c0.91-0.27,5.63-5.11,7.79-6.44c14.23-8.73,30.33-6.45,43.16,3.53
		c18.31-16.31,48.08-9.24,56.99,13.55c0.83,2.12,2.36,9.71,2.82,10.28c0.28,0.35,5.08,2.55,6.48,3.62
		c18.41,14.13,12.96,40.79-6.92,50.59c-8.15,4.02-13.36,2.09-11.73,14.84h-11.98c-0.18-6.23-0.52-11.34,3.12-16.72
		c5.07-7.49,12.36-6.53,18.61-11.33c8.34-6.41,11.12-15.8,4.47-24.72c-3.79-5.08-7.36-4.52-11.5-7.21
		c-3.81-2.47-2.25-5.99-3.05-9.67c-3.6-16.5-21.1-25.98-36.12-16.57c-3.98,2.49-6.9,8.64-11.82,8.43c-4.22-0.18-6.67-5.27-9.75-7.54
		c-7.68-5.65-18.83-5.94-26.82-0.62c-2.84,1.89-6.8,7.71-9.45,8.54c-2.45,0.77-6.05-0.67-9.3-0.35c-4.75,0.47-11.78,4.7-15.08,8.12
		c-18.09,18.75,2.29,47.11,25.84,37.82c5.86-2.31,9.54-9.6,15.38-4.14c3.46,3.24,4.03,7.3,9.4,10.06
		c7.18,3.69,10.56,0.18,15.85,1.35c1.4,0.31,4.28,2.74,4.28,3.96v20.58h-11.98V103.29z"/>
	<path fill="#FFFFFF" d="M172.19,175.15c-43.27,4.22-48.99-57.34-5.34-59.98c6.77-23.74,39.78-23.88,46.61,0
		c43.58,2.65,38,64.25-5.34,59.98v11.98h-11.98V164.3c0-1.02,2.77-3.84,4.14-4.1c6.08-1.18,9.67,4.93,19.23,2.02
		c18.08-5.5,15.63-32.29-2.98-34.78c-4.21-0.56-8.27,1.65-11.7-0.28c-3.57-2.01-2.2-5.36-2.88-8.34c-2.92-12.73-20.68-12.75-23.6,0
		c-0.9,3.94,0.59,8.83-5.81,9.23c-5.01,0.32-6.61-1.76-12.85,0.56c-20.43,7.59-11.12,39.99,11.91,33.62
		c3.09-0.86,4.34-2.81,8.42-2.02c1.37,0.26,4.14,3.08,4.14,4.1v22.83h-11.98V175.15z"/>
	<rect x="64.4" y="193.12" fill="#FFFFFF" width="35.93" height="11.98"/>
	<rect x="64.4" y="217.07" fill="#FFFFFF" width="35.93" height="11.98"/>
	<rect x="64.4" y="241.02" fill="#FFFFFF" width="35.93" height="11.98"/>
	<rect x="279.98" y="193.12" fill="#FFFFFF" width="35.93" height="11.98"/>
	<rect x="279.98" y="217.07" fill="#FFFFFF" width="35.93" height="11.98"/>
	<rect x="279.98" y="241.02" fill="#FFFFFF" width="35.93" height="11.98"/>
	<rect x="106.32" y="336.84" fill="#FFFFFF" width="11.98" height="11.98"/>
	<rect x="130.27" y="336.84" fill="#FFFFFF" width="11.98" height="11.98"/>
	<rect x="238.06" y="336.84" fill="#FFFFFF" width="11.98" height="11.98"/>
	<rect x="262.01" y="336.84" fill="#FFFFFF" width="11.98" height="11.98"/>
</g>
</svg>
