<?xml version="1.0" encoding="utf-8"?>
<!-- Generator: Adobe Illustrator 29.5.1, SVG Export Plug-In . SVG Version: 9.03 Build 0)  -->
<svg version="1.0" id="Layer_1" xmlns="http://www.w3.org/2000/svg" xmlns:xlink="http://www.w3.org/1999/xlink" x="0px" y="0px"
	 viewBox="0 0 384 384" enable-background="new 0 0 384 384" xml:space="preserve">
<path fill="#C9C9C9" d="M-409,541.66l6.12-1.55c-2.57,5.49,3.84,8.53,6.11,6.12c0.41-0.43-0.38-3.43,0.12-4.87
	c0.09-0.25,2.8-4.15,3.02-4.28c1.22-0.7,5.29,7.23,6.86-0.01c4.42,7.54,12.24,2.23,18.23,3.11c3.64,0.53,6.81,4.07,7.83,4.04
	c0.52-0.01,4.33-0.82,6.91-1.02v1.53c-6.33,10.66-10.73-1.65-15.85-1.48c-5.89,0.19-9.99,2.15-14.06,6.05
	c-2.93-7.75-7.82-10.05-6.91,0.03c-3.14,0.14,0.22-4.07-3.8-3.07c-1.56,0.39-0.13,2.72-1.47,2.84c-1.91,0.16-13.1,0.43-14.65,0.24
	c0.16-1.48-0.24-3.2,0-4.6c0.81-0.09,1.52-0.75,1.53-1.53C-408.99,542.72-408.9,542.12-409,541.66z"/>
<path fill="#EAEAEA" d="M-249.52,543.2c0.16,0.95-0.11,2.08,0,3.07c-0.25,0.09-0.61,2-2.24,2.33c-0.89,0.18-11.56,0.8-12.16,0.69
	c-1.6-0.31-0.71-2.86-0.94-3.02c1.52,0.15,2.56,0.2,3.07-1.53c0.45-1.55-0.31-4.31,0-6.14
	C-256.49,538.15-251.77,529.97-249.52,543.2z"/>
<path fill="#EAEAEA" d="M-246.46,544.73c-2.33-8.63,5.68-12.66,4.62-1.53c3.44-2.68,6.18-3.77,10.72-3.07
	c0.43,14.29-3.49,7.45-10.03,6.13c-0.92-0.19-0.55,2.89-0.73,3.03c-3.49,2.76-2.8-2.67-3.04-3.02
	C-245.45,545.49-246.03,545.21-246.46,544.73z"/>
<path fill="#E3E3E3" d="M-312.39,549.32c-0.6,0.6-14.08-0.71-16.86-0.75c4.49-0.63,5.69-7.8,6.31-8.24
	C-317.63,536.47-309.07,545.99-312.39,549.32z M-317,543.2c-1.67-1.67-4.72,1.38-3.05,3.05C-318.38,547.93-315.33,544.88-317,543.2z
	"/>
<path fill="#969696" d="M-410.53,549.33c-7.84-0.94-2.09-6.66-3.06-12.27c3.1-1.11,4.11,2.26,4.59,4.6c0.09,0.45,0.01,1.05,0,1.53
	c-0.73,0.19-1.41,0.81-1.53,1.53C-410.77,546.13-410.37,547.85-410.53,549.33z"/>
<path fill="#C9C9C9" d="M-343.06,541.66c1.78-1.38,3.31,0.23,4.57-0.7c1.64-1.21,0.68-4.34,3.08-3.9l4.58,11.51
	c-2.25,0.47-5.47-0.68-7.63-0.79l1.52-0.77c0.85-5.76-1.08-3.15-4.58-3.83C-341.85,543.13-342.47,541.95-343.06,541.66z"/>
<path fill="#E3E3E3" d="M-347.66,543.2v4.6c-1.43-0.11-3.52,0.32-4.6,0v-4.6c0.73-0.16,1.2-1.37,1.53-1.53L-347.66,543.2z"/>
<path fill="#C9C9C9" d="M-264.86,540.13l1.53,4.6l-4.6-1.53C-265.89,538.41-265.71,541-264.86,540.13z"/>
<path fill="#F6F6F6" d="M-341.53,543.2c3.5,0.67,5.44-1.93,4.58,3.83l-1.52,0.77c-1.02-0.05-2.05,0.04-3.07,0V543.2z"/>
<path fill="#969696" d="M-341.53,543.2v4.6c-1.02-0.04-2.06,0.08-3.07,0c0.19-1.46-0.28-3.27,0-4.6c0.24-1.14,1.01-1.13,1.53-1.53
	C-342.47,541.95-341.85,543.13-341.53,543.2z"/>
<path fill="#969696" d="M-261.79,538.59c-0.31,1.83,0.45,4.59,0,6.14h-1.53l-1.53-4.6c0.24-0.25-0.48-2.18,0.23-2.93
	C-263.6,536.08-261.95,538.61-261.79,538.59z"/>
<path fill="#494949" d="M-263.32,544.73h1.53c-0.5,1.74-1.54,1.68-3.07,1.53c-0.56-0.39-3.38,0.32-4.6-0.01
	c-0.75-2.49,1.39-2.72,1.54-3.06L-263.32,544.73z"/>
<path fill="#494949" d="M-346.13,543.2c0.36,1.13-0.24,3.22,0,4.6c-0.51-0.03-1.03,0.04-1.53,0v-4.6v-1.53
	C-347.18,542.1-346.45,542.19-346.13,543.2z"/>
<path fill="#494949" d="M-246.46,544.73c0.43,0.48,1.01,0.76,1.53,1.53c-1.35,0.26-3.57-0.38-4.6,0c-0.11-0.99,0.16-2.12,0-3.07
	C-248.73,543.81-246.99,544.14-246.46,544.73z"/>
<path fill="#969696" d="M-347.66,541.66v1.53l-3.07-1.53c0.12-0.06-0.03-1.95,2.27-1.54C-347.43,540.37-347.78,541.55-347.66,541.66
	z"/>
<path fill="#E3E3E3" d="M-344.59,547.8c-0.51-0.04-1.02,0.03-1.53,0c-0.24-1.38,0.36-3.47,0-4.6h1.53
	C-344.87,544.53-344.41,546.34-344.59,547.8z"/>
<path fill="#494949" d="M-307.81,547.79h-1.5C-310.07,541.41-307.05,541.41-307.81,547.79z"/>
<path fill="#494949" d="M-352.26,547.8c-1.8-0.53-1.64-1.51-1.53-3.07v-1.53c0.53-0.04,1.09,0.1,1.53,0V547.8z"/>
<path fill="#494949" d="M-198.94,547.79h-1.5C-201.2,541.41-198.18,541.41-198.94,547.79z"/>
<path fill="#C9C9C9" d="M-327.73,540.14c1.04,0.53-0.9,2.6-3.05,1.5C-331.83,541.11-329.89,539.04-327.73,540.14z"/>
<path fill="#C9C9C9" d="M-357.63,537.06c1,0.51,1,1.02,0,1.53V537.06z"/>
<path fill="#FDFDFD" d="M-410.53,544.73c0.12-0.73,0.8-1.35,1.53-1.53C-409.01,543.98-409.72,544.64-410.53,544.73z"/>
<path fill="#FDFDFD" d="M-317,543.2c1.67,1.67-1.38,4.72-3.05,3.05C-321.72,544.58-318.67,541.53-317,543.2z"/>
<g>
	<path fill="#FFFFFF" d="M172.07,354.38c4.32,31.27-16.6,31.24-12.26-0.01h-7.68c-0.8,6.29,3.56,24.01-6.81,23.08
		c-10.06-0.9-3.11-21.6-5.62-24.44c-0.33-0.37-4.57-0.64-6.52-1.88c-20.73-13.15-6.91-37.38-11.99-53.98
		c-0.68-2.21-15.48-12.83-18.9-16.37c-46.08-47.74-42.56-124.89,4.58-170.31c2.66-2.57,13.67-9.71,14.36-11.71
		c2.53-7.35-1.07-27.7,0.62-37.73c2.31-13.74,16.68-17.21,17.79-20.55c1.86-5.62-3.46-21.25,5.69-22.06
		c10.37-0.92,6.01,16.79,6.81,23.08h7.68c0.86-5.78-2.86-20.85,4.15-22.8c11.5-3.19,7.59,16.18,8.11,22.79h24.53
		c-4.23-31.41,16.21-30.94,12.26,0.01l7.68,0c0.8-6.29-3.56-24.01,6.81-23.08c9.15,0.82,3.83,16.44,5.69,22.06
		c0.6,1.8,10.5,6.65,13.57,10.97c8.83,12.46,2.6,32.74,4.88,47.27c61.12,42.97,69.97,132.47,15.86,185.16
		c-2.89,2.81-14.41,10.21-15.39,12.21c-5.42,11.03,5.43,34.37-6.08,49.13c-4.53,5.81-12.39,7.21-12.9,7.79
		c-2.51,2.84,4.45,23.55-5.62,24.44c-10.37,0.92-6.01-16.79-6.81-23.08l-7.68,0c3.95,30.94-16.49,31.42-12.26,0.01H172.07z
		 M133.74,60.65c-1.8,8.38,1.32,22.35,0,31.44c31.97-16.23,69.1-15.61,101.2,0V60.65c0-3.43-6.54-6.53-9.94-6.9
		c-18.65-2.04-60.93-1.82-79.83-0.07C140.62,54.1,134.88,55.33,133.74,60.65z M170.2,92.52c-116.83,13.16-117.82,198.84,2.83,211.05
		C323.02,318.76,324.17,75.18,170.2,92.52z M234.94,303.76c-32.6,15.66-68.53,15.4-101.2,0v31.44c0,0.63,7.42,8.22,9.89,6.98
		c25.59-2.1,54.78,2.51,79.91,0.01c3.03-0.3,11.41-3.91,11.41-7V303.76z"/>
	<path fill="#FFFFFF" d="M173.26,106.33c121.98-13.85,135.83,175.09,17.95,183.61C74.42,298.37,61.11,119.06,173.26,106.33z
		 M181,117.05c-59.93,2.14-93.36,71.05-64.38,121.78c30.84,54,108.31,51.94,137.01-3.04C281.7,182.02,242.48,114.85,181,117.05z"/>
	<path fill="#FFFFFF" d="M140.96,150.7c26.47,1.27,56.51-2.8,82.55-0.4c8.76,0.81,17.63,8.95,19,17.81
		c2.3,14.88,1.81,41.34-17.49,43.65c-17.69,2.12-61.71,1.73-79.85,0.03c-20.97-1.96-21.12-25.74-19.13-42.29
		C127,161.48,133.64,153.84,140.96,150.7z M169.01,161.12h-25.3c-7.78,0-11.38,34.29-0.74,39.09c24.52-0.39,53.42,3.22,77.51,0.88
		c6.2-0.6,10.28-3.56,11.32-10.15c1.47-9.26,2.21-28.32-9.8-29.9c-4.29-0.56-33.89-0.61-36.63,0.33
		c-4.82,1.65-19.1,28.9-27.23,19.03C152.78,173.92,166.42,166.31,169.01,161.12z"/>
	<path fill="#FFFFFF" d="M188.57,224.37c3.07,3.16,2.93,23.95-0.36,27.27C174.1,265.9,174.53,209.93,188.57,224.37z"/>
	<path fill="#FFFFFF" d="M221.51,248.16c-2.91-2.94-2.85-20.82,0-23.78c2.58-2.68,8.85-1.48,10.11,2.18
		C233.92,233.21,231.99,258.77,221.51,248.16z"/>
	<path fill="#FFFFFF" d="M158.27,226.3c1.16-3.77,10.73-2.63,10.73,0v23.01c0,4.46-10.73,4.46-10.73,0
		C158.27,244.26,157.23,229.7,158.27,226.3z"/>
	<path fill="#FFFFFF" d="M199.67,226.3c1.16-3.77,10.73-2.63,10.73,0v23.01c0,4.46-10.73,4.46-10.73,0
		C199.67,244.26,198.63,229.7,199.67,226.3z"/>
	<path fill="#FFFFFF" d="M138.54,224.21c2.05-1.27,7.87-0.48,8.79,2.3c1.25,3.78,1.51,22.36-3.83,23.32
		C133.15,251.7,136.61,225.41,138.54,224.21z"/>
	<path fill="#FFFFFF" d="M200.77,169.01c4.18-1.16,8.6,1.7,7.9,6.33c-1.03,6.78-23.17,26.16-22.95,11.08
		C185.78,182.86,197.86,169.81,200.77,169.01z"/>
</g>
</svg>
