<?xml version="1.0" encoding="utf-8"?>
<!-- Generator: Adobe Illustrator 29.5.1, SVG Export Plug-In . SVG Version: 9.03 Build 0)  -->
<svg version="1.0" id="Layer_1" xmlns="http://www.w3.org/2000/svg" xmlns:xlink="http://www.w3.org/1999/xlink" x="0px" y="0px"
	 viewBox="0 0 384 384" enable-background="new 0 0 384 384" xml:space="preserve">
<g>
	<path fill="#FFFFFF" d="M368.15,367.65H11V193.99c4.43-4.72,13.29-2.54,19.12-1.2c11.64,2.69,18.96,10.14,29.55,13.33
		c31.57,9.51,41.41-13.1,68.39-14.94c21.62-1.47,26.58,6.07,43.68,13.25c34.55,14.51,48.59-15.01,80.78-13.29
		c26.15,1.4,36.34,21.86,65.73,15.87c12.41-2.53,20.74-11.12,33.02-14.09c4.36-1.05,17.08-3.91,19.32,1.07l0.4,169.11
		C371.12,365.25,369,365.96,368.15,367.65z M361.12,201.73c-13.82-0.15-23.6,10.05-36.41,13.86c-37.49,11.14-48.9-16.74-79.15-14.47
		c-18.67,1.4-29.31,15.46-48.57,16.82c-31.96,2.26-43.86-21.26-73.66-16.01c-12.22,2.15-19.95,10.26-31.32,13.67
		c-13.29,3.99-28.85,3.23-41.61-2.29c-9.6-4.16-18.03-12.36-29.55-11.57v35.86c19.36,0.35,30.86,15.71,50.28,16.86
		c23.64,1.41,33.29-14.99,54.14-16.85c22.24-1.99,26.91,3.92,44.72,12.2c35.18,16.36,50.18-14.45,83.96-12.25
		c26.4,1.72,36.18,23.1,66.95,15c8.76-2.3,15.55-8.15,23.88-11.27c5.24-1.96,10.72-3.43,16.34-3.69V201.73z M361.12,247.43
		c-13.62,0.44-23.12,10.38-35.49,14.07c-38.95,11.62-49.51-16.99-82.26-14.06c-15.46,1.38-25.8,13.31-41.7,15.95
		c-34.2,5.69-44.68-18.67-75.01-15.95c-13.66,1.22-20.99,9.68-32.73,13.67c-11.26,3.82-23.46,4.21-34.97,1.28
		C45.29,258.91,35.5,248,20.84,247.43v36.56c17.79-1.09,29.78,14.65,46.76,16.16c27.43,2.44,33-12.68,55.62-16.06
		c32.97-4.94,42.83,18.24,73.05,16.11c14.83-1.05,22.99-10.51,36.34-14.28c37.63-10.61,48.45,16.86,80.32,14.23
		c17.93-1.47,29.8-16.87,48.17-16.16V247.43z M361.12,293.83c-17.45,1.15-27.62,13.88-45.43,16.09
		c-23.26,2.88-28.89-5.33-47.38-12.91c-33.51-13.74-47.21,13.57-77.56,13.43c-23.42-0.1-33.14-15.19-51.42-16.63
		c-22.18-1.76-24.16,4.39-41.6,11.88c-12.28,5.27-27.33,6.01-40.16,2.39c-12.91-3.64-22.56-14.16-36.73-14.25v63.98h340.27V293.83z"
		/>
	<path fill="#FFFFFF" d="M209.96,88.54l29.87-27.48c1.92-0.18,2.47,0.12,3.92,1.07c2.17,1.43,18.71,18.1,20.34,20.43
		c0.91,1.29,1.75,2.35,1.3,4.05l-74.04,73.56l-3.92-1.66L118.9,89.96c-2.69-2.94-2.21-5.49,0-8.46
		c1.62-2.18,19.34-19.62,20.72-20.06c2.14-0.69,4.3-0.46,6.01,1.09L172,88.54V11.55c0-1.42,2.87-3.68,4.53-3.9
		c5.04-0.66,24.64-0.7,29.52,0.08c1.39,0.22,3.91,1.74,3.91,3.12V88.54z M200.12,17.53h-18.28v85.42c0,2.56-5.78,4.43-7.7,2.07
		l-31.46-31.18l-1.6,0.25c-2.3,3.48-7.93,6.66-10.26,9.46c-0.68,0.81-1.15,1.3-1.04,2.48l61.46,61.5l61.56-61.56
		c0.24-1.33-10.73-10.92-12.25-12.9l-32.02,31.94c-2.19,2.74-8.41-0.17-8.41-2.78V17.53z"/>
</g>
</svg>
