<?xml version="1.0" encoding="utf-8"?>
<!-- Generator: Adobe Illustrator 29.5.1, SVG Export Plug-In . SVG Version: 9.03 Build 0)  -->
<svg version="1.0" id="Layer_1" xmlns="http://www.w3.org/2000/svg" xmlns:xlink="http://www.w3.org/1999/xlink" x="0px" y="0px"
	 viewBox="0 0 384 384" enable-background="new 0 0 384 384" xml:space="preserve">
<g>
	<path fill="#FFFFFF" d="M208.6,13c4.99,0.95,21.39,5.15,23.44,9.86c1.88,4.31-0.95,7.57-5.6,6.93c-2.29-0.32-4.27-2.46-6.4-3.33
		c-23.43-9.61-50.35,1.55-57.33,26.35c-1.92,6.84-0.22,12.98-1.47,18.58c-1.61,7.2-9.14,1.87-12.63,0.62
		c-51.44-18.51-71.21,62.17-17.3,70.33l142.31,0.04c24.28-3.09,36.52-31.32,20.98-50.78c-9.95-12.46-27.65-15.24-41.18-6.94
		c-3.4,2.09-7.9,8.35-12.19,4.04c-3.57-3.59,0.09-7.32,1.19-11.17c2.48-8.67,2.48-17.03,0.14-25.73c-0.91-3.37-5.07-9.66,0.33-11.95
		c6.45-2.73,8.99,8.1,10.02,12.59c1.61,7.02,1.91,13.57,0.97,20.7c37.02-15.56,73.16,26.15,50.97,60.35
		c-9.21,14.2-24.69,19.89-41.27,19.2v93.78h21.99c0.21,0,0.86-2.75,1.66-3.84c5.85-7.96,17.54-9.34,24.2-1.64
		c11.14,12.89-3.58,31.21-18.54,23.71c-4.15-2.08-5.14-4.95-7.74-8.43c-8.3-1.09-19.04,1.13-27.03-0.14
		c-1.1-0.17-4.24-2.1-4.24-2.87V152.7H237.7v135.18h78.58c0.39,0,1.76-3.29,2.37-4.1c11.01-14.7,33.42-1.75,26.54,14.9
		c-4.16,10.08-18.56,12.51-25.7,4.1c-1.35-1.59-1.96-4.84-3.86-5.2l-82.8,0.02c-2.61,0.18-5.48-3.14-5.48-5.51V152.7H217v171.4
		h119.98c0.61,0,2.01-3.66,2.63-4.49c7.88-10.6,24.63-6.16,27.45,6.43v6.47c-3.57,10.72-16.01,15.8-25.17,8.03
		c-2.11-1.79-3.94-6.44-5.54-6.74l-124.86,0.03c-2.26,0.17-4.82-3.01-4.82-4.88V152.7h-10.35v160.08c0,1.87-2.56,5.05-4.82,4.88
		l-125.39-0.05c-4.55,13.44-23.22,15.16-29.01,1.76c-7.21-16.69,16.24-29.46,26.53-14.89c0.68,0.97,1.22,3.45,1.4,3.45h120.95V152.7
		h-10.35v118.68c0,2.37-2.88,5.69-5.48,5.51l-72.46-0.02c-1.8,0.34-2.97,4.26-4.5,5.85c-7.38,7.67-20.33,5.01-24.75-4.4
		c-7.72-16.43,15.02-30.23,26.24-15.24c0.61,0.81,1.98,4.1,2.37,4.1h68.24V152.7h-16.17v79.88c0,1.13-3.68,2.68-4.91,2.85
		c-4.19,0.6-12.82-0.9-16.01,0.16c-0.98,0.32-2.74,4.47-3.96,5.74c-7.48,7.77-21.32,4.64-25.04-5.4
		c-6.32-17.04,16.06-28.76,26.92-13.98c0.8,1.09,1.45,3.84,1.66,3.84h11.64V152.7c-3.58-0.56-7.66-0.31-11.14-0.83
		c-11.56-1.73-23-8.57-29.88-17.99c-27.52-37.67,9.38-86.14,52.65-71.73c1.55-21.67,15.93-40.62,36.73-47.04l8.55-2.12H208.6z
		 M109.19,226.62c-4.07,4.83,1.87,11.88,7.25,8.22C123.54,230,113.89,221.03,109.19,226.62z M304.11,247.34
		c-5.15-5.63-14.13,3.56-7.23,8.2C302.78,259.51,308.25,251.86,304.11,247.34z M78.15,268.03c-4.14,4.52,1.33,12.17,7.23,8.2
		C92.29,271.59,83.3,262.41,78.15,268.03z M335.16,288.73c-4.35-4.76-13.28,1.66-7.91,7.58C332.14,301.71,340,294.03,335.16,288.73z
		 M55.08,309.45c-4.94-4.94-12.89,2.09-7.88,7.56C52.37,322.66,59.96,314.33,55.08,309.45z M347.84,324.93
		c-4.7,4.7,2.63,13.4,7.93,7.61C360.87,326.96,352.32,320.45,347.84,324.93z"/>
	<path fill="#FFFFFF" d="M199.39,95.96c20.29-2.71,23.26,27.64,4.95,30.17C182.91,129.09,179.96,98.55,199.39,95.96z M201.26,105.68
		c-7.47,0.37-6.69,12.48,1.82,10.79C208.44,115.41,208.1,105.34,201.26,105.68z"/>
	<path fill="#FFFFFF" d="M196.18,54.59c7.83-0.69,15.94,0.24,23.39,2.74c3.93,1.32,10.53,3.26,8.8,8.73
		c-2.07,6.56-11.42,0.5-15.76-0.48c-7.64-1.73-15.15-1.68-22.77,0.12c-4.14,0.98-11.55,6.07-14.51,1.59
		C169.62,58.64,190.86,55.06,196.18,54.59z"/>
	<path fill="#FFFFFF" d="M197.47,75.28c5.55-0.59,25.62,0.77,21.63,10c-2.35,5.44-8.6,1.04-12.28,0.32c-3.01-0.59-7.67-0.59-10.69,0
		c-3.71,0.73-8.76,4.69-11.78,0.48C179.19,78.86,192.62,75.8,197.47,75.28z"/>
</g>
</svg>
