<?xml version="1.0" encoding="utf-8"?>
<!-- Generator: Adobe Illustrator 29.5.1, SVG Export Plug-In . SVG Version: 9.03 Build 0)  -->
<svg version="1.0" id="Layer_1" xmlns="http://www.w3.org/2000/svg" xmlns:xlink="http://www.w3.org/1999/xlink" x="0px" y="0px"
	 viewBox="0 0 384 384" enable-background="new 0 0 384 384" xml:space="preserve">
<g>
	<path fill="#FFFFFF" d="M115.09,285.58c30.92,0.26,64.61,0.21,94.48,8.86c8.01,2.32,23.1,7.36,24.71,16.77
		c0.81,4.76,0.71,19.14,0.17,24.15c-1.36,12.57-21.31,17.49-31.6,19.89c-44.2,10.31-117.06,10.55-160.94-1.15
		c-8.84-2.36-25.8-7.28-27.02-18.03c-0.6-5.24-0.65-19.15-0.02-24.33c1.3-10.67,18.96-15.7,27.75-18.02
		c13.61-3.58,27.67-5.14,41.63-6.65l-4.89-6.19l-24.39-57.67c-8.99-2.57-17.64-6.31-24.39-12.99
		c-35.33-34.95-5.73-99.37,40.56-72.74c23.61,13.58,33.02,48.08,17.55,71.15l23.68,57.12L115.09,285.58z M105.71,297.11l-3.17-28.65
		l-24.4-59.28c-0.49-4.42,3.21-7.45,4.82-10.99c14.81-32.55-24.81-74.56-49.76-49.04c-17.33,17.72-5.47,53.44,16.74,61.78
		c3.9,1.46,9.88,1.51,12.48,4.68l25.12,59.27C93.82,282.08,98.97,290.4,105.71,297.11z M223.57,311.55
		c-1.16-1.97-12.8-6.08-15.58-6.93c-28.55-8.68-61.46-8.56-91.13-8.95c-0.81,4.82,0.49,9.13-4.03,12.48
		c-8.89,6.59-15.86-4.37-20.13-10.88c-15.12,0.22-31.64,2.18-46.34,5.92c-3.24,0.82-22.18,6.35-21.42,9.95
		c1.37,6.49,39.53,13.04,46.2,13.91c35.05,4.59,116.16,6.05,147.35-9.79C220.42,316.27,225.02,314.01,223.57,311.55z M224.43,325.72
		c-4.09,1.48-7.98,3.34-12.16,4.64c-44.01,13.67-137.83,13.84-181.12-1.95c-1.76-0.64-3.85-2.28-5.2-2.67
		c-1.34-0.4-0.94,0.22-1.05,1.04c-0.47,3.57-0.79,8.39,2.19,10.69c9.97,7.72,42.32,12.04,55.38,13.27
		c32.75,3.11,107.19,3.6,136.02-11.3C226.18,335.47,224.46,334.17,224.43,325.72z"/>
	<path fill="#FFFFFF" d="M239.33,14.07C339.42,13.1,402.88,122.88,351.6,209.36c-49,82.65-169.53,84.22-220.43,2.58
		C77.8,126.36,138.87,15.05,239.33,14.07z M229.3,24.84c-88.15,7.21-136.87,108.93-88.56,183.25
		c50.48,77.66,167.9,70.09,207.32-13.71C387.63,110.28,321.2,17.32,229.3,24.84z"/>
	<path fill="#FFFFFF" d="M209.49,68.18c5.84,0.85,10.83,3,15.89,5.92c0.83,0.48,1.79,1.84,2.38,1.94c2.58,0.46,6.13-6.62,8.8-7.47
		c5.87-1.87,10.7,4.26,7.41,9.49c-1.52,2.41-6.17,2.55-8.14,4.92c2.85,6.36,6.81,12.34,7.24,19.56c4.25,1.09,11.21-2.8,14.29,1.29
		c1.77,2.36,1.84,4.85,0.3,7.3c-3.95,6.29-9.01,0.21-14.55,1.54c-0.66,4.09-1.74,8.1-3.52,11.86c-0.83,1.75-4.23,6.13-4.32,7.14
		c-0.31,3.26,14.73,7.42,7.09,14.94c-7.56,7.43-11.48-6.9-14.8-7.48c-1-0.17-14.76,9.3-18.84,7.08c-1.03,5.33,3.5,11.76-2.6,14.92
		c-2.42,1.25-3.71,1.1-5.95-0.3c-6.82-4.27,1.04-11.85-2.17-14.28c-0.77-0.58-6.01-1.39-7.87-2.14c-2.18-0.87-9.22-5.31-10.38-5.31
		c-4.7-0.01-4.02,6.94-8.93,8.21c-5.28,1.37-9.38-3.77-7.33-8.79c1.02-2.48,6.73-4.81,8.8-7.02c-3.2-6.2-7.55-12.31-7.2-19.63
		c-4.65-0.93-12.82,3.55-15.19-2.33c-1.49-3.69,0.16-8.14,4.27-8.99c2.93-0.61,7.23,2.55,10.91,1.3c-0.03-3.3,1.27-6.93,2.52-10
		c0.85-2.07,5.23-8.44,5.23-8.96c-0.02-2.16-5.93-3.5-7.22-4.61c-4.83-4.16-0.08-13.18,7.16-10.21c2.59,1.06,5.24,7.34,7.68,7.33
		c1.13,0,3.88-2.57,5.35-3.26c4.16-1.96,8.94-3.84,13.61-3.91c0.48-5.2-4.1-14.69,4.64-15.08C214.27,52.7,209.16,62.46,209.49,68.18
		z M224.9,128.07c27.32-27.87-15.05-69.17-42.23-41.15C155.85,114.57,198.11,155.4,224.9,128.07z"/>
	<path fill="#FFFFFF" d="M231.34,187.22c1.27,1.44,1.88,3.93,3.14,5.08c1.57,1.45,6.22,2.94,8.49,4.38
		c8.79,5.59,26.77,19.74,18.98,31.73c-5.33,8.19-18.09,5.59-25.91,3.1c-3.39-1.08-10.55-5.6-12.73-5.91
		c-4.04-0.57-10.48,1.72-15.67,1.4c-6.67-0.41-17-3.35-20.72-9.31c-1.24-1.98-1.23-5.25-2.19-6.4c-0.64-0.76-5.37-2.09-7.04-2.98
		c-6.66-3.54-11.75-9.84-7.75-17.56C177.91,175.35,220.48,174.96,231.34,187.22z M224.24,194.31c-2.67-4.17-18.98-6.1-23.8-5.94
		c-3.38,0.11-22.58,3.35-21.74,8.17c0.69,3.96,15.91,5.31,18.23,7.55c4.04,3.9-1.03,7.15-1.03,8.27c0,2.65,12.32,4.71,14.58,4.7
		c3.89-0.01,10.84-3.03,13.42-2.78c2.23,0.22,9.48,5.36,12.7,6.64c2.75,1.09,16.05,5.49,17.09,1.38c-2.1-7.39-8.68-12.5-15.01-16.33
		c-2.84-1.72-11.27-4.93-12.49-6.1C224.35,198.11,225.05,195.56,224.24,194.31z"/>
	<path fill="#FFFFFF" d="M304.39,115.67c12.01-1.04,43.23,3.04,38.43,21.26c-2.51,9.51-22.49,13.34-30.74,13.6
		c-2.44,0.08-7-1.05-8.45-0.63c-1.35,0.39-6.29,6.27-8.05,7.73c-9.22,7.64-36.5,21.24-45.4,8.25c-7.52-10.98,8.09-25.18,16.51-30.7
		c6.29-4.12,7.45-3.66,12.81-9.36C286,118.9,295.08,116.47,304.39,115.67z M258.83,160.44c1.21,1.43,8.56,0.06,10.54-0.41
		c5.66-1.33,14.49-5.9,19.05-9.56c2.98-2.38,8.73-10.29,11.26-10.98c10.62-0.18,26.1,2.95,33.4-6.43
		c-8.41-9.1-29.43-9.15-40.18-4.58c-6.17,2.62-3.84,2.95-6.33,7.25c-1.23,2.12-8.38,4.48-11.13,6.04
		C272.15,143.66,255.03,155.94,258.83,160.44z"/>
	<path fill="#FFFFFF" d="M275.03,63.41c5.22-0.94,11.26-0.19,15.95,2.31c9.84,5.26,10.77,15.93,24.77,16.56
		c3.39,0.15,9.31-2.12,10.83,2.93c3.19,10.63-17.27,7.23-22.77,4.88c-9.47-4.06-13.62-16.76-23.94-16.89
		c-3.08-0.04-5.92,2-8.61-0.63C267.57,68.97,270.59,64.21,275.03,63.41z"/>
	<path fill="#FFFFFF" d="M270.72,196.4c4.2-1.26,8.09,3.89,12.1,5.49c13.24,5.3,21.89-7.31,36.68,1.23
		c3.68,2.13,11.4,8.54,5.35,12.38c-4.89,3.1-7.19-1.94-10.51-3.64c-7.45-3.83-19.31,2.53-28.74,1.57
		c-5.02-0.52-19.97-7.46-18.12-13.78C267.71,198.81,269.88,196.66,270.72,196.4z"/>
	<path fill="#FFFFFF" d="M196.35,114.18c12.03-2.46,12.98,16.91,0.63,15.52C188.33,128.73,187.84,115.93,196.35,114.18z"/>
	<path fill="#FFFFFF" d="M201.3,95.89c-6.19,6.18-14.73-3.71-8.7-9.06C198.64,81.46,207.06,90.13,201.3,95.89z"/>
	<path fill="#FFFFFF" d="M218.51,103.44c6.03-1.79,8.01,6.5,3.1,8.13C215.32,113.66,213.86,104.82,218.51,103.44z"/>
</g>
</svg>
