<?xml version="1.0" encoding="utf-8"?>
<!-- Generator: Adobe Illustrator 29.5.1, SVG Export Plug-In . SVG Version: 9.03 Build 0)  -->
<svg version="1.0" id="Layer_1" xmlns="http://www.w3.org/2000/svg" xmlns:xlink="http://www.w3.org/1999/xlink" x="0px" y="0px"
	 viewBox="0 0 384 384" enable-background="new 0 0 384 384" xml:space="preserve">
<g>
	<path fill="#FFFFFF" d="M86.93,375.65h-4.94c-16.45-8.83-3.5-19.71,4.94-28.22H25.91c-2.87,0-7.13-5.15-8.11-7.76v-5.64
		c0.98-2.61,5.25-7.76,8.11-7.76h61.03c-2.77-4.13-7.71-6.98-10.47-11.05c-7.42-10.95,4.89-22.86,16.12-14
		c6.33,5,22.88,21.54,27.87,27.87c4.64,5.89,4.27,10.21-0.34,15.9c-5.2,6.42-21.12,22.52-27.53,27.51
		C90.64,374,89.16,374.71,86.93,375.65z"/>
	<path fill="#FFFFFF" d="M17.79,226.08v-5.64c1.91-3.88,4.28-6.95,8.88-7.7c14.71,1.11,32.13-1.71,46.5-0.06
		c12.65,1.45,13.06,19.9-0.68,21.19c-14.48,1.36-31.11-1.02-45.82-0.09C22.07,233.04,19.7,229.97,17.79,226.08z"/>
	<path fill="#FFFFFF" d="M55.7,255.17l189.65-0.19c47.8,4.02,67.08,64.87,28.49,94.86c-32.94,25.6-83.13,3.42-85.33-38.01
		c-0.51-9.63,5.27-18.12,15.47-13.36c7.46,3.48,5.2,13.79,7.93,21c8.34,22.01,38.12,27.15,53.51,9.24
		c17.34-20.18,3.89-50.53-22.18-52.56L56.3,276.11C44.75,273.77,44.29,258.22,55.7,255.17z"/>
	<path fill="#FFFFFF" d="M320.31,85.89c38.39-3.94,67.5,32.03,56.24,68.94c-6.02,19.73-25.3,34.98-45.88,36.67
		c-33.27,2.73-70.08-2.04-103.73,0.04c-12.48-0.91-14.04-17.74-1.93-21.03l103.54-0.17c26.01-2.47,38.94-33.58,20.84-53.27
		c-17.15-18.65-48.52-10.21-54.13,14.34c-1.62,7.1,0.03,17.01-10.46,17.8c-15.23,1.15-12.01-17.51-9.16-26.84
		C281.57,102.95,300.1,87.97,320.31,85.89z"/>
	<path fill="#FFFFFF" d="M132.91,115.44c-2.02,1.25-2.51,10.45-2.17,12.87c1.05,7.58,14.44,16.1,4.53,24.41
		c-8.29,6.95-15.77-0.08-20.25-7.28c-6.94-11.16-7.55-25.63-1.99-37.54c0.84-1.81,3.85-5.6,4.1-6.49
		c1.17-4.14,0.95-12.91,1.76-17.99c6.11-38.21,28.62-60.86,66.69-67.36c11.7-2,32.78-6.56,33.22,10.79
		c1.19,47.74-25.04,80.93-72.34,87.66C144.05,114.85,133.48,115.08,132.91,115.44z M196.99,36.31
		c-33.77,0.61-57.04,24.18-57.84,57.85c15.82-2.09,33.11-6.68,43.75-19.38C191.89,64.03,195.31,49.94,196.99,36.31z"/>
	<path fill="#FFFFFF" d="M112.14,212.84l165.65-0.18c12.65,2.21,12.67,18.98,0,21.2H113.37
		C101.35,231.79,100.52,216.29,112.14,212.84z"/>
	<path fill="#FFFFFF" d="M154.47,170.51c4.21-0.77,30.3-0.74,33.93,0.31c10.24,2.95,9.32,19.07-1.7,20.63
		c-4.67,0.66-29.47,0.7-33.33-0.41C143.32,188.14,144.05,172.41,154.47,170.51z"/>
</g>
</svg>
