<?xml version="1.0" encoding="utf-8"?>
<!-- Generator: Adobe Illustrator 29.5.1, SVG Export Plug-In . SVG Version: 9.03 Build 0)  -->
<svg version="1.0" id="Layer_1" xmlns="http://www.w3.org/2000/svg" xmlns:xlink="http://www.w3.org/1999/xlink" x="0px" y="0px"
	 viewBox="0 0 384 384" enable-background="new 0 0 384 384" xml:space="preserve">
<path fill="#FFFFFF" d="M377,304.78c-6.21,27.94-38.03,39.18-59.81,20.12c-14.5,12.41-34.89,12.87-49.2-0.13
	c-14.47,12.61-34.92,12.97-49.32,0c-14.4,12.85-34.91,12.72-49.32,0c-14.44,12.97-34.61,12.57-49.19,0.13
	c-14.19,12.36-34.8,12.87-48.84-0.02c-23.01,19.59-57.14,7.1-60.32-23.29l0-235.22c2.23-17.33,14.73-27.72,31.84-28.92
	c45.18-3.15,93.86,2.36,139.4-0.03c17.46,1,15.57,23.33-1.81,22.18v29.31h52.18c-1.38-9.24,6.49-17.71,15.77-13.26
	c1.67,0.8,5.68,4.88,5.68,6.47v16.8c16.02,0.1,31.67,2.36,46.64,8.04c34.17,12.97,61.27,42.04,71.49,77.19l4.81,21.99V304.78z
	 M158.99,59.61H39.26c-2.9,0-7.52,6.42-6.82,9.62l0,148.73c0.3,14.73,20.52,19.35,26.39,5.61c2.53-5.92,0.13-12.26,7.3-15.57
	c6.29-2.91,13.42,0.14,15.17,6.84c1.09,4.16,0.15,7.23,3.03,11.26c6.46,9.02,20.67,6.72,24.25-3.53c1.31-3.76,0.42-7.36,2.63-10.95
	c4.77-7.76,17.13-5.4,19.41,3.22c1.06,4.01,0.18,6.82,2.75,10.83c5.4,8.45,18.41,7.9,23.37-0.71c0.58-1.01,2.25-6.17,2.25-7.04
	V59.61z M232.61,110.36h-52.18v39.31h52.18V110.36z M254.06,142.52c35.64,0.95,67.2,27.3,72.7,62.75
	c1.22,7.88-0.55,17.77,5.99,23.32c7.13,6.05,18.84,3.15,21.91-5.85c2.45-7.16-0.33-22.65-2.3-30.2
	c-10-38.15-44.46-67.34-83.65-71.46c-2.36-0.25-10.26-0.98-12.16-0.78c-0.73,0.08-2.48,0.37-2.48,1.13V142.52z M180.43,171.11v50.39
	c0,0.65,1.97,3.8,2.56,4.59c6.22,8.29,18.37,7.47,23.19-1.71c1.96-3.73,0.98-6.87,2.31-10.55c2.81-7.74,13.88-9.58,18.7-2.64
	c3.82,5.5,0.52,11.54,7.18,17.12c8.16,6.83,19.84,3.02,22.22-7.12c0.95-4.05-0.24-6.18,2.8-10.07c4.34-5.55,12.98-5.85,17.12,0.07
	c2.6,3.72,1.46,7.63,3.12,11.89c4.88,12.53,23.7,10.86,26.27-1.89c5.15-25.45-19.73-52.19-43.83-56.33
	c-1.39-0.24-8.04-1.34-8.04,0.18v12.87c0,1.74-4.3,5.98-6.15,6.72c-9.32,3.75-16.57-4.45-15.3-13.51H180.43z M355.56,250.46
	c-13.68,5.85-27.9,2.33-38.86-7.1c-13.36,13.42-35.04,12.92-48.69,0.14c-14.43,12.72-35.01,13.17-49.32-0.04
	c-14.57,13.02-34.79,13.01-49.34,0c-13.69,12.66-35.3,13.41-48.7-0.09c-14.27,12.61-35.43,13.74-49.32,0
	c-10.96,9.43-25.18,12.95-38.86,7.1v51.11c0,0.48,2.04,4.57,2.55,5.32c5.66,8.26,18.36,7.89,23.34-0.88
	c2.88-5.07,0.62-10.08,4.82-14.48c4.98-5.22,13.82-4.3,17.2,2.16c2.01,3.83,1.01,7.5,2.81,11.49c4.36,9.69,18.71,10.35,24.08,1.14
	c3.04-5.2,1.15-10.29,5.24-14.77c4.34-4.75,12.7-4.55,16.34,0.85c2.65,3.94,1.69,7.35,2.93,11.37c3.2,10.36,18.23,12.25,24.23,3.41
	c3.45-5.08,1.62-11.63,5.37-15.71c4.83-5.26,14.26-4.17,17.5,2.38c2.61,5.28,0.28,10.36,5.45,15.28c7.21,6.87,20,3.96,22.78-5.88
	c0.78-2.75,0.47-5.6,1.57-8.44c3.26-8.47,15.51-8.87,19.56-1c1.38,2.67,0.97,6.68,1.86,9.57c3.16,10.27,17.11,12.78,23.85,4.52
	c3.48-4.27,2.32-7.46,3.65-12.08c2.37-8.26,12.88-10.44,18.28-3.91c3.61,4.37,1.96,9.39,4.89,14.41
	c6.08,10.42,21.98,7.93,24.99-3.81c0.54-2.1,0.24-3.95,0.65-5.78c1.92-8.53,12.39-11.55,18.45-5.2c4.2,4.4,1.94,9.4,4.82,14.48
	c4.97,8.77,17.67,9.14,23.34,0.88c0.51-0.74,2.55-4.84,2.55-5.32V250.46z"/>
</svg>
