<?xml version="1.0" encoding="utf-8"?>
<!-- Generator: Adobe Illustrator 29.5.1, SVG Export Plug-In . SVG Version: 9.03 Build 0)  -->
<svg version="1.0" id="Layer_1" xmlns="http://www.w3.org/2000/svg" xmlns:xlink="http://www.w3.org/1999/xlink" x="0px" y="0px"
	 viewBox="0 0 384 384" enable-background="new 0 0 384 384" xml:space="preserve">
<g>
	<g>
		<path fill="#FFFFFF" d="M380.66,195.1c-4.73,42.53-44.61,73.96-86.83,70.81c-24.09-1.8-45.45-15.42-59.69-34.33v54.73
			c0,0.61,1.38,3.77,1.82,4.61c4.22,7.95,13.38,8.32,21.33,7.95c5.5-22.44,34.17-30.7,50.82-14.35
			c22.66,22.26-0.35,60.53-31.57,50.2c-9.2-3.04-16.67-11.45-18.91-20.77c-13.25,0.99-26.24-2.01-33.79-13.75
			c-1.23-1.92-4.71-9.14-4.71-11.03v-65.81c0-0.08-1-1.07-1.07-1.07H173.4v54.37c26.71,6.48,31.09,43.92,6.46,56.19
			c-24.59,12.24-51.05-10.93-42.54-36.85c3.2-9.73,11.87-16.18,21.06-19.69v-54.01h-45.03v61.88c0,7.57-5.39,17.61-11.1,22.51
			c-8.16,7.02-17.75,7.59-28.11,7.27c-6.2,23.98-37.67,30.61-52.97,10.97c-15.16-19.46-1.9-47.88,22.46-49.01
			c14.65-0.69,27.02,9.03,30.85,22.97c7.26,0.19,14.92,0.36,19.87-5.83c0.79-0.99,3.28-5.09,3.28-6.02v-64.74H72.98
			c-6.77,0-19.8-5.68-25.59-9.44c-30.66-19.9-35.51-64.25-9.81-90.38c3.88-3.95,11.7-7.75,14.33-10.7
			c2.03-2.27,4.67-9.66,6.84-13.18c9.13-14.84,24.56-26.55,41.6-30.61c8.47-2.02,15.86-1.48,24.46-1.99
			c28.81-52.06,101.37-59.23,139.33-12.87c12.55,15.32,18.61,34.22,19.32,53.99c40.6-8.49,81.93,15.5,93.81,55.25
			c1.16,3.89,3.02,11,3.39,14.85C381.08,181.61,381.14,190.77,380.66,195.1z M75.13,207.26h147.59c-2.61-12.6-3.48-24.49-1.11-37.24
			c4.6-24.73,22.89-47.67,46.02-57.31c3.75-46.66-36.79-82.47-82.82-73.96c-23.27,4.3-43.2,22.93-51.47,44.73
			C106.36,76,80.06,87.9,68.21,113.07c-0.91,1.94-2.86,8.8-3.63,9.6c-0.97,1.02-8.8,4.54-11.19,6.32
			C21.86,152.37,36.4,203.34,75.13,207.26z M254.41,232.05c35.81,35.85,99,17.6,109.48-31.92c10.64-50.24-36.27-92.48-85.09-75.87
			C233.78,139.59,220.92,198.53,254.41,232.05z M42.44,291.15c-18.26,2.55-15.97,32.2,4.74,29.77
			C65.91,318.72,63.39,288.22,42.44,291.15z M163.22,291.15c-18.77,2.83-15.43,33.4,6.08,29.68
			C186.8,317.8,183.77,288.04,163.22,291.15z M283.99,291.13c-16.36,2.73-15.99,27.84,0.63,29.79
			C307.98,323.66,306.74,287.34,283.99,291.13z"/>
		<path fill="#FFFFFF" d="M158.96,80.14c13.39-0.9,49.26,1.53,52.72,18.35l0.15,83.21c-2.46,14.69-30.42,18.69-42.33,19.16
			c-12.84,0.5-46.04-2.77-49.38-18.59L119.77,101C121.18,85.06,146.36,80.98,158.96,80.14z M195.55,100.68
			c-0.63-0.85-11.52-3.7-13.45-4.07c-15.13-2.93-31.81-2.12-45.88,4.43c-0.01,2.95,12.37,5.44,14.88,5.85
			c11.47,1.87,26.52,1.66,37.66-1.91C189.76,104.66,196.9,102.5,195.55,100.68z M196.98,118.56c-20.38,5.91-41.82,5.9-62.17,0
			c0.08,7.2-1.78,8.13,5.01,11.07c12.42,5.37,35.59,5.33,48.43,1.29c1.39-0.44,8.13-3.16,8.58-3.93
			C197.61,125.64,196.59,120.51,196.98,118.56z M196.98,144.31c-20.3,6.02-41.82,5.84-62.17,0c0.33,5.87-1.96,7.96,3.91,10.75
			c12.13,5.75,36.25,5.58,48.97,1.77c1.67-0.5,8.49-2.96,9.14-4.08C197.61,151.41,196.59,146.25,196.98,144.31z M196.98,170.06
			c-20.15,6.06-42,5.89-62.17,0c0.41,5.12-1.9,8,3.3,10.64c12.16,6.16,35.15,5.97,48.15,2.59
			C194.76,181.08,198.48,180.09,196.98,170.06z"/>
	</g>
	<path fill="#FFFFFF" d="M297.58,143.03c4.26-0.7,6.95,1.64,8.6,5.36l0.3,39.05c2.92,5.07,18.15,16.04,19.54,20.49
		c2.31,7.39-4.74,12.93-11.08,8.95c-2.16-1.36-20.2-19.4-21.86-21.76c-1.38-1.96-1.56-3.01-1.79-5.37
		c-0.81-8.65-1.04-30.98,0.09-39.31C291.87,146.92,293.81,143.66,297.58,143.03z"/>
</g>
</svg>
