<?xml version="1.0" encoding="utf-8"?>
<!-- Generator: Adobe Illustrator 29.5.1, SVG Export Plug-In . SVG Version: 9.03 Build 0)  -->
<svg version="1.0" id="Layer_1" xmlns="http://www.w3.org/2000/svg" xmlns:xlink="http://www.w3.org/1999/xlink" x="0px" y="0px"
	 viewBox="0 0 384 384" enable-background="new 0 0 384 384" xml:space="preserve">
<g>
	<path fill="#FFFFFF" d="M236.33,160.2c70.78-32.22,148.82,27.42,134.26,104.46c-12.22,64.62-87.37,97.22-143.3,62.63
		c-33.96,36.2-85.42,48.78-132.16,30.55c-45.68-17.81-77.11-64.33-79.69-113.08c-1.94-36.64,22.37-80.34,40.45-111.38
		c23.69-40.66,51.26-79.18,80.02-116.35c3.78-1.97,5.48-0.39,7.96,2.19c10.02,10.43,22.44,29.87,31.15,42.22
		C197.35,93.07,218.69,125.71,236.33,160.2z M227.67,165.96c-20.73-40.49-46.49-79.41-73.5-116.03c-3.96-5.37-9.21-13.5-13.56-18.09
		c-0.48-0.51-1.34-2-2.14-1.49c-26.79,35.52-53.15,72.35-75.38,110.94c-15.64,27.14-38.64,68.89-37.58,100.59
		c1.37,40.77,25.03,80.75,60.69,100.44c43.37,23.95,98.98,15.61,132.06-21.24c-12.19-10.65-22.27-23.26-28.71-38.26
		c-20.44,13.91-47.14-3.88-39.79-28.24c3.13-10.39,14.29-17.87,25.05-17.44c2.26,0.09,7.53,2.38,8.15,0.29
		c0.92-3.13,0.5-9.19,1.6-12.72c-25.53-11.87-14.63-49.76,13.79-45.61c2.35,0.34,8.06,3.42,8.72,3.29
		C208.86,182.05,222.67,165.81,227.67,165.96z M268.52,161.86c-60.58,5.36-94.97,74.13-64.72,126.86
		c32.19,56.1,114.19,56.37,146.72,0.46C385.72,228.68,337.44,155.76,268.52,161.86z M188.1,214.88c2.28-8.76,7.31-16.61,12.22-24.1
		c-7.99-5.38-19.46,1.52-20.14,10.81C179.79,206.86,183.21,213,188.1,214.88z M172.12,247.41c-13.55,1.48-18.44,19.65-6.99,27.48
		c5.15,3.52,16.92,3.64,19.72-2.49c1.32-2.88-2.86-17.96-2.88-22.27C179.21,248.06,175.59,247.03,172.12,247.41z"/>
	<path fill="#FFFFFF" d="M115.28,206.43c34.35-4.99,37.88,43.15,8.98,47.1C90.6,258.13,87.06,210.53,115.28,206.43z M116.7,216.48
		c-13.54,2.51-14.15,24.49,0.72,26.99C138.79,247.06,139.07,212.34,116.7,216.48z"/>
	<path fill="#FFFFFF" d="M157.72,123.71c38.19-5.55,36.97,52.93-0.01,47.11C132.41,166.85,132.39,127.39,157.72,123.71z
		 M159.14,133.77c-13.52,2.31-14.34,24.45,0.72,26.98C180.86,164.28,181.75,129.91,159.14,133.77z"/>
	<path fill="#FFFFFF" d="M58.46,249.59c26.05-3.71,30.38,35.44,6.23,38.59C37.76,291.69,34.14,253.06,58.46,249.59z M67.73,261.88
		c-8.85-8.03-21.72,5.31-12.73,13.81C64.16,284.35,76.98,270.27,67.73,261.88z"/>
	<path fill="#FFFFFF" d="M158.44,304.98c27.74-4.03,30.19,37.59,4.09,38.68C138.71,344.65,135.19,308.36,158.44,304.98z
		 M159.86,315.02c-12.58,2.58-7.16,23.23,5.87,17.38C175.42,328.05,170.41,312.86,159.86,315.02z"/>
	<path fill="#FFFFFF" d="M109.52,158.95c27.92-4.46,30.79,35.37,6.22,37.87C90.49,199.38,87.56,162.45,109.52,158.95z
		 M107.07,171.24c-8.01,8.01,4.09,21.13,12.74,13.1C128.58,176.2,115.61,162.7,107.07,171.24z"/>
	<path fill="#FFFFFF" d="M64.92,195.63c24.75-3.97,28.56,32.64,5.5,34.99C47.04,233.01,44.05,198.98,64.92,195.63z M66.34,205.68
		c-8.58,1.95-6.61,16.26,3.25,14.82C79.41,219.06,76.92,203.28,66.34,205.68z"/>
	<path fill="#FFFFFF" d="M108.79,258.93c23.98-4.09,27.58,31.29,5.51,33.55C92.46,294.72,88.84,262.33,108.79,258.93z
		 M110.96,268.98c-8.85,1.71-5.54,14.25,1.91,13.51C122.24,281.55,120.48,267.14,110.96,268.98z"/>
	<path fill="#FFFFFF" d="M108.07,300.64c24.41-5.03,25.61,32.59,1.34,29.26C94.41,327.85,93.52,303.64,108.07,300.64z M110.2,310.69
		c-3.48,1.07-3.79,8.14,0.75,9.08C119.44,321.53,118.86,308.03,110.2,310.69z"/>
	<path fill="#FFFFFF" d="M89.1,127.38c13.93-13.82,35,8.41,20.53,21.61C95.47,161.9,75.41,140.96,89.1,127.38z M98,133.75
		c-4.54,1.01-4.1,7.72,0.18,8.91C105.38,144.66,106.56,131.84,98,133.75z"/>
	<path fill="#FFFFFF" d="M272.84,170.49c60.11-3.88,100,61.52,70.04,113.92c-28.7,50.18-102.4,50.13-131.16,0
		C183.51,235.24,216.57,174.12,272.84,170.49z M274.27,180.57c-53.99,2.7-82.23,66.33-47.3,108.02
		c29.59,35.32,85.92,29.61,108-10.64C359.49,233.21,325.16,178.02,274.27,180.57z"/>
	<path fill="#FFFFFF" d="M302.27,215.03c4.58-1.05,7.92,1.96,6.54,6.53c-0.94,3.13-15.69,14.64-18.23,18.53
		c1.33,7.75,0.29,16.22-8.04,19.24c-18.76,6.81-26.68-20.73-9.71-26.26c4.4-1.43,8.67,0.47,10.93-0.58
		c3.27-1.52,11.77-12.83,15.82-15.83C300.48,215.99,301.05,215.31,302.27,215.03z M277.05,242.36c-4.31,0.39-5.14,8.06,0.55,7.75
		C283.09,249.8,281.25,241.98,277.05,242.36z"/>
	<path fill="#FFFFFF" d="M326,241.64c1.44-0.41,5.43-0.35,7-0.11c6.68,1.05,5.24,11.64-4.95,9.98
		C322.33,250.59,321.65,242.89,326,241.64z"/>
	<path fill="#FFFFFF" d="M275.66,186.96c8.64-2.59,8.85,12.46,2.69,13.54C270.76,201.82,270.19,188.6,275.66,186.96z"/>
	<path fill="#FFFFFF" d="M219.24,242.43c3.47-2.81,15.15-1.49,11.65,6.25C227.45,256.27,211.57,248.65,219.24,242.43z"/>
	<path fill="#FFFFFF" d="M277.05,292.06c7.15-0.38,7.43,13.59,0.5,13.96C270.4,306.39,270.12,292.42,277.05,292.06z"/>
</g>
</svg>
