<?xml version="1.0" encoding="utf-8"?>
<!-- Generator: Adobe Illustrator 29.5.1, SVG Export Plug-In . SVG Version: 9.03 Build 0)  -->
<svg version="1.0" id="Layer_1" xmlns="http://www.w3.org/2000/svg" xmlns:xlink="http://www.w3.org/1999/xlink" x="0px" y="0px"
	 viewBox="0 0 384 384" enable-background="new 0 0 384 384" xml:space="preserve">
<g>
	<path fill="#FFFFFF" d="M17.71,5.98l125.12,124.56c2,9.37,0.35,19.81,0.86,29.51l13.68,8.86c2.11,0.5,6.9-4.03,9.22-5.25
		c19.32-10.17,40.46-11.23,60.22-1.29c9.6,4.83,16.68,12.97,25.02,19.52c1.74,0.46,11.67-5.95,14.84-7.08
		c10.73-3.82,21.6-3.82,32.58-1.2l14.9-36.54c-8.19,0.39-21.29,5.74-21.12-7.16l20.37-50.11c2.03-4.03,6.8-4.44,10.55-2.53
		l33.26,41.78c6.31,13.15-8.39,12.72-17.09,14.31l23.52,30.21c8.09,16.17-19.92,11.46-22.19,14.66c-1.16,1.64,1.1,18.56,2.36,20
		c0.89,1.01,6.72,3.1,8.64,4.33c37.91,24.26,38.24,77.39,0,101.55c-2.33,1.47-5.09,2.3-7.44,3.69c-0.76,0.45-1.55-0.27-1.17,1.58
		c2.73,4.37,29.64,27.56,29.64,29.66v32.89H17.71V5.98z M32.53,42.11v315h326.11c-0.46-3.87,1.06-9.19-0.88-12.56
		c-11.38-9.4-21.58-23.91-32.96-32.82c-14.64-11.47-36.84-19.4-52.27-30.19c-28.64-20.03-56.4-50.64-82.05-74.53l-61.42-38.17
		c-1-10.47,1.07-21.65-1.07-31.83L32.53,42.11z M337.33,119l-15.28-20.36c-1.3,0.02-8.59,20.12-9.72,23.14L337.33,119z
		 M342.89,162.54c0.64-0.92-10.48-15.37-12.07-17.1c-1.03-1.13-1.85-2.65-3.67-2.34l-8.34,23.15L342.89,162.54z M188.88,171.13
		c-3.46,0.47-12.91,3.66-15.5,5.81c-1.1,0.91-1.18,0.86-0.05,1.85c8.68,6.42,19.95,11.37,28.26,18.07
		c10.57,8.52,20.75,21.57,31.04,31.03c14.34,13.19,36.72,33.47,52.54,43.82c14.11,9.24,29.85,16.49,44.33,25.16
		c54.51-11.78,44.85-88.61-10.7-88.44c-10.71-20.31-34.53-28.47-54.57-15.68c-2.75,1.75-10.33,10.09-12.4,9.55
		c-13.99-11.5-27.39-29.27-46.62-31.29C200.67,170.53,193.38,170.52,188.88,171.13z M326.22,180.15l-11.12,1.39
		c3.79,3.64,7.37,7.38,10.85,11.33c0.37,0.42,0.72,2.68,2.12,1.18C328.55,193.53,325.35,182.44,326.22,180.15z"/>
	<path fill="#FFFFFF" d="M217.82,58.79v31.5h-31.5l10.17-10.65l-34.76-34.76c-1.47-3.18,6.64-9.46,9.3-11.13
		c2.56,0,31.3,31.42,36.13,35.22L217.82,58.79z"/>
	<path fill="#FFFFFF" d="M165.94,66.2v31.5h-31.5l10.17-10.65l-34.76-34.76c-1.47-3.18,6.64-9.46,9.3-11.13
		c2.56,0,31.3,31.42,36.13,35.22L165.94,66.2z"/>
	<path fill="#FFFFFF" d="M237,107.99c3.06-0.82,38.8,38.11,44.31,42.54c1.94,2.53-8.15,11.13-9.3,11.13
		c-15.23-13.16-28.93-28.63-43.57-42.67C226.43,116.89,236.11,108.23,237,107.99z"/>
	<path fill="#FFFFFF" d="M185.12,115.4c1.8-0.47,14.6,11.99,15,13.52c0.49,1.86-7.5,10-8.89,10.37c-1.8,0.47-14.6-11.99-15-13.52
		C175.74,123.91,183.73,115.77,185.12,115.4z"/>
	<path fill="#FFFFFF" d="M223.13,134.94c10.86-2.37,12.74,12.6,4.21,14.46C216.48,151.77,214.6,136.8,223.13,134.94z"/>
	<path fill="#FFFFFF" d="M200.69,252.43l55.62,50.96c1.57,1.66-7.16,11.24-7.91,11.62c-3.41,1.71-49.54-46.38-57.04-50.55
		C189.75,261.44,199,254.75,200.69,252.43z"/>
	<path fill="#FFFFFF" d="M158.55,268.17l56.99,46.3c0.59,1.34-7.58,11.17-9.3,11.16l-55.64-45.43
		C149.37,277.77,158.31,271.3,158.55,268.17z"/>
	<path fill="#FFFFFF" d="M122.04,280.25l51.84,47.22c0.86,1.08,0.1,1.52-0.46,2.33c-0.53,0.78-7.87,8.09-8.4,8.36
		c-0.72,0.37-1.14,0.63-1.84,0l-49.6-45.93C112.06,288.97,120.34,283.36,122.04,280.25z"/>
	<path fill="#FFFFFF" d="M77.59,233.03l30.48,29.6c1.47,3.19-6.67,9.49-9.3,11.13c-2.36,0-26.92-26.72-30.97-30.27
		C67.52,241.9,75.98,234.75,77.59,233.03z"/>
	<path fill="#FFFFFF" d="M108.83,226.15c-5.33-5.19-10.37-11.84-16.01-16.94l9.66-10.51c3.28,4.93,25.37,23.03,26.31,26.57
		c0.71,2.68-6.95,8.24-8.83,10.4C119.23,235.8,110.14,227.43,108.83,226.15z"/>
</g>
</svg>
