<?xml version="1.0" encoding="utf-8"?>
<!-- Generator: Adobe Illustrator 29.5.1, SVG Export Plug-In . SVG Version: 9.03 Build 0)  -->
<svg version="1.0" id="Layer_1" xmlns="http://www.w3.org/2000/svg" xmlns:xlink="http://www.w3.org/1999/xlink" x="0px" y="0px"
	 viewBox="0 0 384 384" enable-background="new 0 0 384 384" xml:space="preserve">
<g>
	<path fill="#FFFFFF" d="M178.96,380.27c-44.42-4.66-84.39-35.89-100.32-77.27c-17.3-44.95-3.3-78.8,18.11-118.51
		c24.85-46.09,58-88.56,90.33-129.54c2.87-2.07,5.32-2.06,8.17,0c20.26,25.05,39.68,50.78,57.82,77.42
		c2.09,6.85-5.45,10.59-9.87,4.82c-16.07-23.79-33.66-46.46-51.25-69.11c-1.39-1.73-1.52,0.53-2.2,1.31
		C155.84,108,99.52,188.49,85.46,237.02c-14.46,49.92,15.8,103.22,62.16,123.29C231.53,396.65,325,317.27,294.36,229.5
		c-8.96-25.66-24.37-49.31-37.75-72.78c-0.32-5.53,5.35-7.82,9.59-4.5c15.79,26.48,34.88,55.83,42.33,86.07
		c16.8,68.24-39.06,136.46-107.31,141.97C195.47,380.73,184.6,380.86,178.96,380.27z"/>
	<path fill="#FFFFFF" d="M7.4,106.35V93.44c6.46-22.22,19.58-41.98,33.15-60.46c2.5-3.41,13.15-18.14,15.85-19.31
		c3.81-1.65,5.65,0.55,8.08,3.03c12.39,12.66,32.81,44.17,39.96,60.47c27.86,63.53-59.74,102.68-91.68,44.98L7.4,106.35z
		 M58.73,27.49c-11.15,14.71-22.96,29.5-31.5,45.97c-9.03,17.42-14.16,33.41-0.43,50.45c28.7,35.64,86.7,5.12,68.73-39.97
		C87.54,63.9,71.75,44.52,58.73,27.49z"/>
	<path fill="#FFFFFF" d="M189.6,202.63c50.76-1.11,82.43,55.91,53.83,98.27c-24.8,36.74-79.73,36.74-104.53,0
		C111.27,259.96,140.22,203.71,189.6,202.63z M190.93,213.46c-43.69,0.24-67.97,51.74-39.94,85.4
		c20.71,24.87,58.49,25.22,79.68,0.76C259.8,265.97,235.29,213.22,190.93,213.46z"/>
	<path fill="#FFFFFF" d="M321.61,13.27c3.14-0.94,5.03,0.73,7.04,2.72c12.92,12.77,39.37,53.93,44.32,71.18
		c14.8,51.57-54.84,86.38-89.18,44.62c-23.86-29.02-6.15-57.99,11.17-84.17C298.18,42.74,318.25,14.28,321.61,13.27z M323.61,27.49
		c-13.02,17.03-28.81,36.41-36.8,56.45c-17.98,45.09,40.03,75.61,68.73,39.97c13.72-17.04,8.6-33.03-0.43-50.45
		C346.56,56.99,334.76,42.2,323.61,27.49z"/>
	<path fill="#FFFFFF" d="M182.39,130.93c9.29-1.05,19.67-0.25,28.54,2.64c3.71,1.21,15.96,6.17,16.72,9.88
		c0.44,2.16-0.74,5.35-2.75,6.27c-4.17,1.89-14.23-5.04-19.36-6.46c-9.47-2.61-20.42-2.5-29.84,0.34
		c-4.88,1.48-13.53,7.61-17.76,6.34c-3.74-1.12-4.47-6.79-1.2-9.5C161.36,136.61,176.32,131.61,182.39,130.93z"/>
	<path fill="#FFFFFF" d="M212.48,159.63c3.13,3.43,1.07,8.96-3.74,9.15c-3.28,0.13-10.25-4.08-15.74-4.38
		c-8.8-0.49-10.91,2.88-17.43,4.18c-6.26,1.26-9.42-5.26-5.41-9.21C177.82,151.8,205.19,151.66,212.48,159.63z"/>
	<path fill="#FFFFFF" d="M203.11,181.18c4.05,4.43,0.24,10.28-5.7,8.92c-2.37-0.55-3.19-2.92-6.6-2.77
		c-2.77,0.12-3.83,2.29-5.91,2.77c-5.95,1.37-9.73-4.5-5.7-8.92C184.86,175,197.47,175.01,203.11,181.18z"/>
	<path fill="#FFFFFF" d="M184.55,220.56c65.32-7.37,69.15,88.53,8.41,90.86C135.1,313.64,129.37,226.79,184.55,220.56z
		 M185.42,231.83c-14.91,1.3-26.31,14.35-28.71,28.68c3.3,0.23,9.11-1.22,10.44,2.83c3.25,9.85-10.48,7.48-10.46,8.3
		c3,14.5,14,25.76,28.72,28.31c-1.44-14.63,12.6-14.59,11.86,0.01c14.59-2.88,25.67-14.06,28.34-28.69
		c-5.48,0.39-12.27-0.18-10.61-7.38c1.29-5.61,10.67-2.39,10.62-3.75c-2.71-14.18-13.88-27.03-28.72-28.32
		C198.31,245.88,184.01,245.85,185.42,231.83z"/>
	<path fill="#FFFFFF" d="M206.76,243.45c5.34-1.18,7.86,2.89,6.28,7.74l-19.07,18.95c-3.67,2.1-12.84-2.9-16.23-5.18
		c-5.82-3.93-3.86-11.12,3.55-10.02c2.3,0.34,8.22,4.16,8.69,4.07C192.16,258.64,202.87,244.31,206.76,243.45z"/>
</g>
</svg>
