<?xml version="1.0" encoding="utf-8"?>
<!-- Generator: Adobe Illustrator 29.5.1, SVG Export Plug-In . SVG Version: 9.03 Build 0)  -->
<svg version="1.0" id="Layer_1" xmlns="http://www.w3.org/2000/svg" xmlns:xlink="http://www.w3.org/1999/xlink" x="0px" y="0px"
	 viewBox="0 0 384 384" enable-background="new 0 0 384 384" xml:space="preserve">
<g>
	<path fill="#FFFFFF" d="M48.85,367c-11.92-3.87-20.63-12.3-22.05-25.17l0.14-180.44c0.76-2.53,2.46-3.66,5.01-3.95
		c17.4-2.02,38.68,1.51,56.5,0.06c7.09,1.11,4.51,10.99,0.73,10.99H37.82v174.05c0,4.49,8.94,13.44,13.44,13.44h61
		c-2.23-2.82-4.26-5.83-5.64-9.18c-0.65-1.58-2.63-7.1-2.63-8.4V146.42c-9.18,2.46-16.44-6.41-6.51-10.99
		c26.9,0.24,53.98-0.7,80.78,0.48c7.58,6.71-0.11,12.3-8.1,10.51v11.03h33.09v-11.03c-9.18,2.46-16.44-6.41-6.51-10.99
		c26.9,0.24,53.98-0.7,80.78,0.48c7.58,6.71-0.11,12.3-8.1,10.51v11.03h73.41c1.58,0,4.45,3.95,3.82,5.83l-0.04,178.55
		c-1.06,8.59-5.67,16.8-13.31,21.15L323.19,367H48.85z M159.14,146.42h-44.12v190.6c0,2.95,4.27,10.6,6.52,12.78
		c13.65,13.25,36.55,3.82,37.62-14.82l-0.04-106.19c0.68-6.95,10.36-6.99,11.06,0l0.01,107.57c-0.72,7.24-3.69,14.05-8.3,19.62
		h49.63c-2.23-2.82-4.26-5.83-5.64-9.18c-0.65-1.58-2.63-7.1-2.63-8.4V168.48h-33.09v40.32c0,4.81-11.03,4.81-11.03,0V146.42z
		 M258.4,146.42h-44.12v190.6c0,0.33,0.99,3.59,1.23,4.28c7.76,22.17,40.97,18.27,42.91-6.33c0.51-6.5-1.36-19.98,0.28-25.22
		c1.54-4.93,9.79-4.61,10.68,1.11c0.83,5.28,0.55,20.5,0.03,26.14c-0.63,6.85-4,13.69-8.26,18.97h61c4.5,0,13.44-8.95,13.44-13.44
		V168.48h-66.17v123.04c0,4.81-11.03,4.81-11.03,0V146.42z"/>
	<path fill="#FFFFFF" d="M185.14,14.2c2.72-0.6,4.15,0.16,6.08,1.9c9.63,8.72,28.01,36.31,32.05,48.6
		c13.16,39.99-40.89,66.76-66.88,34.48c-18.45-22.92-1.73-47.55,12.81-67.12C171.59,28.85,182.24,14.85,185.14,14.2z M186.43,28.57
		c-8.72,11.46-22.27,26.75-26.12,40.78c-8.64,31.49,39.86,46.93,52.03,15.5c5.85-15.11-7.53-33.37-16.38-45.21
		C194.72,37.98,187.42,28.36,186.43,28.57z"/>
	<path fill="#FFFFFF" d="M52.78,185.17c11.02,0.67,24.27-1.41,35.02-0.16c3.19,0.37,4.8,2,5.17,5.17
		c0.87,7.56,0.72,25.41,0.02,33.14c-0.32,3.48-1.44,5.41-5.19,5.84c-7.54,0.88-25.42,0.72-33.14,0.02
		c-3.48-0.32-5.41-1.44-5.84-5.19c-0.83-7.13-0.83-26.68,0-33.81C49.13,187.63,50.26,185.93,52.78,185.17z M81.93,196.05H59.87
		v22.06h22.06V196.05z"/>
	<path fill="#FFFFFF" d="M52.78,240.31c11.02,0.67,24.27-1.41,35.02-0.16c3.19,0.37,4.8,2,5.17,5.17
		c0.87,7.56,0.72,25.41,0.02,33.14c-0.32,3.48-1.44,5.41-5.19,5.84c-7.54,0.88-25.42,0.72-33.14,0.02
		c-3.48-0.32-5.41-1.44-5.84-5.19c-0.83-7.13-0.83-26.68,0-33.81C49.13,242.77,50.26,241.07,52.78,240.31z M81.93,251.2H59.87v22.06
		h22.06V251.2z"/>
	<path fill="#FFFFFF" d="M52.78,295.46c11.02,0.67,24.27-1.41,35.02-0.16c3.19,0.37,4.8,2,5.17,5.17
		c0.87,7.56,0.72,25.41,0.02,33.14c-0.32,3.48-1.44,5.41-5.19,5.84c-7.54,0.88-25.42,0.72-33.14,0.02
		c-3.48-0.32-5.41-1.44-5.84-5.19c-0.83-7.13-0.83-26.68,0-33.81C49.13,297.92,50.26,296.22,52.78,295.46z M81.93,306.34H59.87
		v22.06h22.06V306.34z"/>
	<path fill="#FFFFFF" d="M284.39,185.17c11.02,0.67,24.27-1.41,35.02-0.16c3.19,0.37,4.8,2,5.17,5.17
		c0.87,7.56,0.72,25.41,0.02,33.14c-0.32,3.48-1.44,5.41-5.19,5.84c-7.54,0.88-25.42,0.72-33.14,0.02
		c-3.48-0.32-5.41-1.44-5.84-5.19c-0.83-7.13-0.83-26.68,0-33.81C280.74,187.63,281.87,185.93,284.39,185.17z M313.54,196.05h-22.06
		v22.06h22.06V196.05z"/>
	<path fill="#FFFFFF" d="M284.39,240.31c11.02,0.67,24.27-1.41,35.02-0.16c3.19,0.37,4.8,2,5.17,5.17
		c0.87,7.56,0.72,25.41,0.02,33.14c-0.32,3.48-1.44,5.41-5.19,5.84c-7.54,0.88-25.42,0.72-33.14,0.02
		c-3.48-0.32-5.41-1.44-5.84-5.19c-0.83-7.13-0.83-26.68,0-33.81C280.74,242.77,281.87,241.07,284.39,240.31z M313.54,251.2h-22.06
		v22.06h22.06V251.2z"/>
	<path fill="#FFFFFF" d="M284.39,295.46c11.02,0.67,24.27-1.41,35.02-0.16c3.19,0.37,4.8,2,5.17,5.17
		c0.87,7.56,0.72,25.41,0.02,33.14c-0.32,3.48-1.44,5.41-5.19,5.84c-7.54,0.88-25.42,0.72-33.14,0.02
		c-3.48-0.32-5.41-1.44-5.84-5.19c-0.83-7.13-0.83-26.68,0-33.81C280.74,297.92,281.87,296.22,284.39,295.46z M313.54,306.34h-22.06
		v22.06h22.06V306.34z"/>
</g>
</svg>
