<?xml version="1.0" encoding="utf-8"?>
<!-- Generator: Adobe Illustrator 29.5.1, SVG Export Plug-In . SVG Version: 9.03 Build 0)  -->
<svg version="1.0" id="Layer_1" xmlns="http://www.w3.org/2000/svg" xmlns:xlink="http://www.w3.org/1999/xlink" x="0px" y="0px"
	 viewBox="0 0 384 384" enable-background="new 0 0 384 384" xml:space="preserve">
<g>
	<path fill="#FFFFFF" d="M256.14,73.19l-10.17,0.18l-28.58,12.12c-5.98,0.2-8-3.05-8.51-8.53c-1.08-11.6-1.03-34.92,0-46.56
		c0.47-5.35,2.28-9.84,8.52-9.37l29.26,12.26l72.8,0.06c0.13-9.4,3.53-15.97,13.18-9.84c6.93,4.4,26.14,18.48,31.61,23.95
		c3.82,3.82,4.3,7.79,0,11.6l-35.17,26.21c-7.63,1.68-10.19-5.64-9.14-12.09l-4.15,0v22c0,0.66-2.44,4.29-3.51,4.79
		c-2,0.93-6.43,0.29-6.43,0.61v30.72h28.59c1.26,0,17.84,15.51,18.68,16.97c1.18,2.04,1.1,4.13,0.41,6.32
		c-0.69,2.18-18.32,18.22-19.93,18.22h-118.9v19.92h32.73c0.24,0,3.73,2.06,4.12,2.52c1.2,1.41,1.15,2.8,1.31,4.5
		c2.14,23.47-1.71,50.15,0.01,73.97c0.67,1.33-3.43,5.35-3.77,5.35h-34.39v56.45h20.3c0.47,0,3.48,3.38,3.71,4.58
		c0.67,3.51,0.55,21.93-0.03,25.66c-0.48,3.06-2.26,3.99-4.9,5.06c-24.75-1.01-53.11,2.68-77.53,0.43
		c-3.81-0.35-7.14-2.22-7.78-6.31c-0.7-4.43-0.52-16.86-0.08-21.57c0.23-2.46,1.52-7.85,4.59-7.85h19.47v-56.45H138.9
		c-1.57,0-5.07-4.17-4.58-6.21c1.64-23.27-2.12-49.36-0.02-72.28c0.29-3.19,2.64-7.85,6.25-7.85h31.9v-19.92H53.56l-18.17-15.84
		c-2.67-3.57-2.74-6.29-0.09-9.93c2.69-1.5,16.26-15.74,17.43-15.74h29c0.09,0,1.24-1.16,1.24-1.25v-29.47
		c0-0.32-4.37,0.26-6.42-0.62c-1.04-0.45-3.52-3.11-3.52-3.94V73.19c-8.97-2.19-11.56,3.87-18.5,6.79
		c-20.55,8.65-42.14-7.63-40.32-29.61c2.18-26.24,32.94-34,50.96-17.05l73.76,0.05c12.28-8.19,22.5-12.8,37.15-5.75
		c29.73,14.31,11.06,65.92-24.57,52.84c-7.46-2.74-10.41-9.54-19.66-7.28v22.83c0,4.21-7.9,4.23-9.94,5.81v28.23
		c0,0.09,1.15,1.25,1.24,1.25h49.3v-23.66c0-3.61,3.55-6.66,7.02-7.08c5.6-0.66,24.46-0.79,29.8,0.07c1.79,0.29,5.44,3.29,5.44,4.51
		v26.15h51.37v-30.72c0-0.29-4,0.31-5.78-0.43c-1.22-0.5-4.16-4.61-4.16-5.79V73.19z M38.84,38.52
		c-15.14,2.61-14.03,27.25,0.68,29.64c4.41,0.72,13.62-0.42,15.11-5.52c0.5-1.73,0.5-17.02,0-18.75
		C53.05,38.47,43.45,37.72,38.84,38.52z M158.15,38.52c-2.44,0.42-7.18,2.89-7.9,5.37c-0.5,1.72-0.5,17.02,0,18.75
		c0.56,1.94,5.09,4.97,7.06,5.38c12.89,2.65,22.89-7.19,19.05-19.92C173.8,39.6,166.55,37.08,158.15,38.52z M223,38.32v29.89
		l14.42-5.72c1.2-0.82,0.21-15.49,0.38-18.25L223,38.32z M334.02,42.47v21.58l13.86-9.72l1.06-1.48L334.02,42.47z M69.42,46.74
		c-1.91,0.63-1.75,8.99-1.36,11.09c0.77,4.21,9.65,1.3,12.81,1.21c18.37-0.55,36.95,0.41,55.19,0.5c1.19-0.83,1.61-12.09-0.58-12.8
		H69.42z M319.94,47.45H252V59.9h67.94V47.45z M118.6,73.19H86.29V87.3h32.31V73.19z M301.71,73.19h-31.49V87.3h31.49V73.19z
		 M108.66,100.58H96.23v30.72h12.43V100.58z M291.77,100.58h-11.6v30.72h11.6V100.58z M200.63,113.87h-14.09v78.87h14.09V113.87z
		 M173.28,144.58H58.53c-0.6,0-8.11,6.5-7.84,7.8c1.43,0.65,7.31,7.14,7.84,7.14h113.51c0.09,0,1.24-1.16,1.24-1.25V144.58z
		 M214.71,159.53h113.93c1.37,0,6.58-5.79,7.81-7.17c0.14-0.8-6.46-7.77-6.98-7.77H214.71V159.53z M239.57,206.85h-91.14v58.94
		h91.14V206.85z M200.63,279.07h-14.09v56.45h14.09V279.07z M225.48,348.81h-62.97v8.3h62.97V348.81z"/>
</g>
</svg>
